<?xml version="1.0" encoding="UTF-8" standalone="no"?>
<svg width="100px" height="100px" viewBox="0 0 100 100" version="1.1" xmlns="http://www.w3.org/2000/svg" xmlns:xlink="http://www.w3.org/1999/xlink" xmlns:sketch="http://www.bohemiancoding.com/sketch/ns">
    <!-- Generator: Sketch 3.5.2 (25235) - http://www.bohemiancoding.com/sketch -->
    <title>Avatar8</title>
    <desc>Created with Sketch.</desc>
    <defs>
        <circle id="path-1" cx="50" cy="50" r="50"></circle>
    </defs>
    <g id="Page-1" stroke="none" stroke-width="1" fill="none" fill-rule="evenodd" sketch:type="MSPage">
        <g id="Avatar8" sketch:type="MSLayerGroup">
            <mask id="mask-2" sketch:name="Mask Copy 2" fill="white">
                <use xlink:href="#path-1"></use>
            </mask>
            <use id="Mask-Copy-2" fill="#F4E4A7" sketch:type="MSShapeGroup" xlink:href="#path-1"></use>
            <g id="Group-12-Copy" mask="url(#mask-2)" sketch:type="MSShapeGroup">
                <g transform="translate(25.000000, 10.000000)">
                    <path d="M40.6256231,21.9863583 L10.050349,21.9863583 L10.050349,68.4880362 L40.6256231,68.4880362 L40.6256231,21.9863583 Z" id="Fill-502" fill="#367878"></path>
                    <path d="M25.1761715,0.285808652 C37.120339,0.285808652 46.8042871,10.0015021 46.8042871,21.9860582 C46.8042871,33.9706142 37.120339,43.6863077 25.1761715,43.6863077 C13.232004,43.6863077 3.55004985,33.9706142 3.55004985,21.9860582 C3.55004985,10.0015021 13.232004,0.285808652 25.1761715,0.285808652" id="Fill-503" fill="#5BA3A3"></path>
                    <path d="M49.8929212,70.626049 C49.3724826,70.9561745 48.8410768,71.2772966 48.305683,71.5874145 L2.0444666,71.5874145 C1.5110668,71.2772966 0.981655035,70.9571749 0.459222333,70.626049 L0.459222333,63.8374683 C0.459222333,60.7372897 2.02652044,59.9499904 3.54795613,59.1867003 L17.4512463,52.2120488 L17.4512463,43.6868079 L32.9008973,43.6868079 L32.9008973,52.2120488 L46.8041874,59.1867003 C48.3256231,59.9499904 49.8929212,60.7372897 49.8929212,63.8374683 L49.8929212,70.626049 Z" id="Fill-504" fill="#FFD6CC"></path>
                    <path d="M49.8929212,70.626049 C49.3724826,70.9561745 48.8430708,71.2772966 48.307677,71.5874145 L39.6177468,71.5874145 L17.4512463,49.3459592 L17.4512463,43.6868079 L32.9008973,43.6868079 L32.9008973,52.2120488 L46.8041874,59.1867003 C48.3256231,59.9499904 49.8929212,60.7372897 49.8929212,63.8374683 L49.8929212,70.626049 Z" id="Fill-505" fill="#F8C0B2"></path>
                    <path d="M9.72931206,105.651064 C11.719342,100.762205 12.8180459,95.7162872 12.8180459,90.1881857 C12.8180459,84.6590838 11.717348,79.3770758 9.72931206,74.6872929 L9.72931206,105.651064 Z M40.6256231,74.6872929 C38.6345962,79.6551815 37.5348953,84.6000613 37.5348953,90.1881857 C37.5348953,95.7753097 38.6326022,101.317417 40.6256231,105.856142 L40.6256231,74.6872929 Z M49.8928215,139.789042 L0.459122632,139.789042 L0.459122632,63.8371682 C0.459122632,60.7369896 2.02741775,59.9496903 3.54785643,59.1874005 L17.4511466,52.2127491 C17.4511466,56.492376 20.9097707,59.9616949 25.1759721,59.9616949 C29.4421735,59.9616949 32.9007976,56.492376 32.9007976,52.2127491 L46.8040877,59.1874005 C48.3255234,59.9496903 49.8928215,60.7369896 49.8928215,63.8371682 L49.8928215,139.789042 Z" id="Fill-506" fill="#A3C6F0"></path>
                    <path d="M38.887338,55.2146903 L46.8045862,59.1872004 C48.3250249,59.9504906 49.89332,60.7367895 49.89332,63.8369681 L49.89332,87.8931132 L40.6251246,78.5925775 L40.6251246,74.6870928 C40.2422732,75.6384545 39.894317,76.5908166 39.5802592,77.5451794 L28.105683,66.0318025 L38.887338,55.2146903 Z" id="Fill-507" fill="#799DC9"></path>
                    <path d="M40.6252243,110.448988 L12.5584247,82.2872821 L12.5524427,82.2282597 C13.8844467,83.3276776 15.592323,83.9879286 17.4517448,83.9879286 C19.6142572,83.9879286 21.5673978,83.0975901 22.9691924,81.661044 C23.5733799,81.0438094 24.3151545,80.7306904 25.1765703,80.7306904 C26.036989,80.7306904 26.7787637,81.0438094 27.3829511,81.661044 C28.7847458,83.0975901 30.7398804,83.9879286 32.9003988,83.9879286 C34.7977069,83.9879286 36.5364905,83.3006674 37.8824526,82.1612342 C38.0020937,82.0391878 38.1855434,81.916141 38.4198405,81.7940946 C37.8395813,84.478115 37.5344965,87.2431661 37.5344965,90.1882857 C37.5344965,95.7754097 38.6322034,101.317517 40.6252243,105.856242 L40.6252243,110.448988 Z" id="Fill-508" fill="#799DC9"></path>
                    <path d="M6.78035892,57.5660842 L17.451346,52.2120488 C17.451346,56.4806715 20.8920239,59.9439881 25.1452642,59.961995 C24.7514457,64.7348094 20.7654038,68.4872359 15.9089731,68.4872359 C10.787338,68.4872359 6.63878365,64.3236531 6.63878365,59.1867003 C6.63878365,58.6344903 6.68763709,58.0922842 6.78035892,57.5660842" id="Fill-509" fill="#FFFFFF"></path>
                    <path d="M40.6252243,35.9363615 C40.6252243,44.460602 33.6730808,51.4372542 25.1765703,51.4372542 C16.6790628,51.4372542 9.72691924,44.4616024 9.72691924,35.9363615 L9.72691924,21.9860582 C9.72691924,21.719957 9.73589232,21.4538558 9.74885344,21.1907558 C13.0659023,20.0123078 15.8046859,17.6043924 17.4188435,14.5132173 C22.8226321,19.170988 29.8525424,21.9860582 37.5344965,21.9860582 C38.5773679,21.9860582 39.6062812,21.9340384 40.6232303,21.833 L40.6232303,21.8319996 C40.6232303,21.883019 40.6252243,21.9350388 40.6252243,21.9860582 L40.6252243,35.9363615 Z" id="Fill-510" fill="#FFD6CC"></path>
                    <path d="M40.6252243,35.9363615 C40.6252243,36.5305874 40.589332,37.1178106 40.5235294,37.6960304 L17.4188435,14.5132173 C22.8226321,19.170988 29.8525424,21.9860582 37.5344965,21.9860582 C38.5773679,21.9860582 39.6062812,21.9340384 40.6232303,21.833 L40.6232303,21.8319996 C40.6232303,21.883019 40.6252243,21.9350388 40.6252243,21.9860582 L40.6252243,35.9363615 Z" id="Fill-511" fill="#F8C0B2"></path>
                    <path d="M12.8554337,22.9579276 C14.1286142,21.8314994 15.7557328,21.2112636 17.4516451,21.2112636 C19.1495513,21.2112636 20.77667,21.8314994 22.0498504,22.9579276 L21.0299103,24.1143673 C20.0378863,23.2360333 18.775673,22.7618531 17.4516451,22.7618531 C16.1296112,22.7618531 14.8683948,23.2360333 13.8763709,24.1143673 L12.8554337,22.9579276 Z" id="Fill-512" fill="#B08C82"></path>
                    <path d="M28.3044865,22.9579276 C29.1948156,22.1686276 30.2616152,21.6274218 31.4041874,21.375326 C32.9026919,21.6774408 34.4390828,21.872515 36.0093719,21.9485439 C36.5427717,22.2166458 37.0432702,22.5547744 37.4969093,22.9579276 L36.4789631,24.1143673 C35.4839482,23.2360333 34.2227318,22.7618531 32.9006979,22.7618531 C31.578664,22.7618531 30.3174477,23.2360333 29.3234297,24.1143673 L28.3044865,22.9579276 Z" id="Fill-513" fill="#B08C82"></path>
                    <path d="M30.8460618,38.8352635 C31.1651047,38.5521559 31.649651,38.5821673 31.9328016,38.9012886 C32.2139581,39.2214103 32.1830508,39.7085955 31.865005,39.9917031 C30.0135593,41.6323268 27.64666,42.5326691 25.1760718,42.5326691 C22.7054835,42.5326691 20.3385842,41.6323268 18.4881356,39.9917031 C18.1690927,39.7085955 18.1401795,39.2214103 18.421336,38.9012886 C18.7024925,38.5821673 19.1900299,38.5521559 19.5060818,38.8352635 C21.0783649,40.2277929 23.0813559,40.9820796 25.1760718,40.9820796 C27.2727817,40.9820796 29.2737787,40.2277929 30.8460618,38.8352635" id="Fill-514" fill="#990000"></path>
                    <path d="M17.4759721,25.0861367 C19.1808574,25.0861367 20.5647059,26.4736642 20.5647059,28.1863152 C20.5647059,29.8979659 19.1808574,31.2864938 17.4759721,31.2864938 C15.7690927,31.2864938 14.3852443,29.8979659 14.3852443,28.1863152 C14.3852443,26.4736642 15.7690927,25.0861367 17.4759721,25.0861367" id="Fill-515" fill="#FFFFFF"></path>
                    <path d="M32.9228315,25.0861367 C34.6297109,25.0861367 36.0135593,26.4736642 36.0135593,28.1863152 C36.0135593,29.8979659 34.6297109,31.2864938 32.9228315,31.2864938 C31.2159521,31.2864938 29.8340977,29.8979659 29.8340977,28.1863152 C29.8340977,26.4736642 31.2159521,25.0861367 32.9228315,25.0861367" id="Fill-516" fill="#FFFFFF"></path>
                    <path d="M32.9228315,25.0861367 C34.6297109,25.0861367 36.0135593,26.4736642 36.0135593,28.1863152 C36.0135593,29.5338275 35.1541376,30.6812637 33.9567298,31.1084261 L30.0115653,27.1489209 C30.4362911,25.9474641 31.5788634,25.0861367 32.9228315,25.0861367" id="Fill-517" fill="#E6E6E6"></path>
                    <path d="M17.4759721,26.6361259 C18.3284148,26.6361259 19.019342,27.3303898 19.019342,28.185715 C19.019342,29.0420405 18.3284148,29.7363045 17.4759721,29.7363045 C16.6215354,29.7363045 15.9306082,29.0420405 15.9306082,28.185715 C15.9306082,27.3303898 16.6215354,26.6361259 17.4759721,26.6361259" id="Fill-518" fill="#424F54"></path>
                    <path d="M32.9228315,26.6361259 C33.7772682,26.6361259 34.4681954,27.3303898 34.4681954,28.185715 C34.4681954,29.0420405 33.7772682,29.7363045 32.9228315,29.7363045 C32.0703888,29.7363045 31.3774676,29.0420405 31.3774676,28.185715 C31.3774676,27.3303898 32.0703888,26.6361259 32.9228315,26.6361259" id="Fill-519" fill="#424F54"></path>
                    <path d="M15.9306082,27.4109205 C16.355334,27.4109205 16.7032901,27.7580524 16.7032901,28.1862152 C16.7032901,28.6133776 16.355334,28.9605095 15.9306082,28.9605095 C15.5028913,28.9605095 15.1579262,28.6133776 15.1579262,28.1862152 C15.1579262,27.7580524 15.5028913,27.4109205 15.9306082,27.4109205" id="Fill-520" fill="#FFFFFF"></path>
                    <path d="M31.3775673,27.4109205 C31.8042871,27.4109205 32.1502493,27.7580524 32.1502493,28.1862152 C32.1502493,28.6133776 31.8042871,28.9605095 31.3775673,28.9605095 C30.9528415,28.9605095 30.6068794,28.6133776 30.6068794,28.1862152 C30.6068794,27.7580524 30.9528415,27.4109205 31.3775673,27.4109205" id="Fill-521" fill="#FFFFFF"></path>
                    <path d="M43.5100698,57.5660842 L32.9008973,52.2120488 C32.9008973,56.4806715 29.3964108,59.9439881 25.1451645,59.961995 C25.536989,64.7348094 29.5220339,68.4872359 34.3814556,68.4872359 C39.5000997,68.4872359 43.649651,64.3236531 43.649651,59.1867003 C43.649651,58.6344903 43.6007976,58.0922842 43.5100698,57.5660842" id="Fill-522" fill="#E6E6E6"></path>
                    <path d="M37.5344965,12.6860227 L46.8046859,21.9865583 L46.8046859,68.4872359 C41.6860419,68.4872359 37.5344965,64.3236531 37.5344965,59.1867003 L37.5344965,12.6860227 Z M12.8176471,9.58584413 L3.55044865,21.9865583 L3.54745763,68.4872359 C8.66909272,68.4872359 12.8176471,64.3236531 12.8176471,59.1867003 L12.8176471,9.58584413 Z" id="Fill-523" fill="#5BA3A3"></path>
                    <path d="M25.1761715,25.8615314 L24.4034895,25.0862367 L25.1761715,24.3119424 C26.3985045,24.3119424 27.5380857,24.8861607 28.2688933,25.8645326 C28.9997009,24.8901622 30.1352941,24.3139431 31.3556331,24.3139431 L38.3067797,24.3139431 C38.7325025,24.3139431 39.0794616,24.6600747 39.0794616,25.0862367 L39.0794616,28.1864153 C39.0794616,31.3986364 36.4892323,33.9996252 33.2858425,33.9996252 C30.0864407,33.9996252 27.4942173,31.3966357 27.4942173,28.1864153 C27.4942173,26.901927 26.456331,25.8615314 25.1761715,25.8615314 L25.1761715,25.8615314 Z M31.3556331,25.8615314 C30.0824526,25.8615314 29.0395813,26.9089296 29.0395813,28.1864153 C29.0395813,30.5403101 30.9408774,32.4490357 33.2858425,32.4490357 C35.6308076,32.4490357 37.5340977,30.5383094 37.5340977,28.1864153 L37.5340977,25.8615314 L31.3556331,25.8615314 Z" id="Fill-524" fill="#995535"></path>
                    <path d="M18.997009,25.8615314 L12.8175474,25.8615314 L12.8175474,28.1864153 C12.8175474,30.5383094 14.7218345,32.4490357 17.0667996,32.4490357 C19.4127617,32.4490357 21.3150548,30.5403101 21.3150548,28.1864153 C21.3150548,26.9089296 20.2701894,25.8615314 18.997009,25.8615314 L18.997009,25.8615314 Z M25.1764706,25.8615314 C23.8963111,25.8615314 22.8604187,26.901927 22.8604187,28.1864153 C22.8604187,31.3966357 20.2652044,33.9996252 17.0667996,33.9996252 C13.8654038,33.9996252 11.2721834,31.3986364 11.2721834,28.1864153 L11.2721834,25.0862367 C11.2721834,24.6600747 11.6181456,24.3139431 12.0428714,24.3139431 L18.997009,24.3139431 C20.217348,24.3139431 21.3549352,24.8901622 22.0857428,25.8645326 C22.8165503,24.8861607 23.9541376,24.3119424 25.1764706,24.3119424 L25.1764706,25.8615314 Z" id="Fill-525" fill="#BA643C"></path>
                    <path d="M25.1761715,65.3871574 C26.0306082,65.3871574 26.7215354,66.0804209 26.7215354,66.9367465 C26.7215354,67.793072 26.0306082,68.487336 25.1761715,68.487336 C24.3237288,68.487336 23.6308076,67.793072 23.6308076,66.9367465 C23.6308076,66.0804209 24.3237288,65.3871574 25.1761715,65.3871574" id="Fill-526" fill="#FFFFFF"></path>
                    <path d="M26.2698903,65.8409299 C26.5490528,66.1220368 26.7215354,66.5091839 26.7215354,66.9373467 C26.7215354,67.7936723 26.0306082,68.4869358 25.1761715,68.4869358 C24.7514457,68.4869358 24.3636092,68.31387 24.0844467,68.0337635 L26.2698903,65.8409299 Z" id="Fill-527" fill="#E6E6E6"></path>
                    <path d="M24.4078764,28.1862152 C24.4078764,27.7600532 24.7508475,27.4139216 25.1765703,27.4139216 C25.6012961,27.4139216 25.9462612,27.7600532 25.9462612,28.1862152 L25.9462612,31.2863937 C25.9462612,31.7125558 25.6012961,32.0616885 25.1765703,32.0616885 L23.6312064,32.0616885 C23.2034895,32.0616885 22.8585244,32.4068197 22.8585244,32.8369832 C22.8585244,33.2641456 23.2034895,33.6142787 23.6312064,33.6142787 L25.1765703,33.6142787 C25.6012961,33.6142787 25.9462612,33.9594099 25.9462612,34.3865723 C25.9462612,34.8127343 25.6012961,35.1578655 25.1765703,35.1578655 L23.6312064,35.161867 C22.3510469,35.161867 21.3151545,34.1204711 21.3151545,32.8369832 C21.3151545,31.555496 22.3530409,30.511099 23.6312064,30.511099 L24.4078764,30.511099 L24.4078764,28.1862152 Z" id="Fill-528" fill="#B08C82"></path>
                    <path d="M25.1761715,71.5873144 C26.0306082,71.5873144 26.7215354,72.2815784 26.7215354,73.1369035 C26.7215354,73.9932291 26.0306082,74.687493 25.1761715,74.687493 C24.3237288,74.687493 23.6308076,73.9932291 23.6308076,73.1369035 C23.6308076,72.2815784 24.3237288,71.5873144 25.1761715,71.5873144" id="Fill-529" fill="#FFFFFF"></path>
                    <path d="M26.2698903,72.0415871 C26.5490528,72.3216936 26.7215354,72.7098412 26.7215354,73.1370036 C26.7215354,73.9933291 26.0306082,74.687593 25.1761715,74.687593 C24.7514457,74.687593 24.3636092,74.5135269 24.0844467,74.2334204 L26.2698903,72.0415871 Z" id="Fill-530" fill="#E6E6E6"></path>
                    <path d="M25.1761715,77.7873714 C26.0306082,77.7873714 26.7215354,78.480635 26.7215354,79.3369605 C26.7215354,80.1932861 26.0306082,80.8865496 25.1761715,80.8865496 C24.3237288,80.8865496 23.6308076,80.1932861 23.6308076,79.3369605 C23.6308076,78.480635 24.3237288,77.7873714 25.1761715,77.7873714" id="Fill-533" fill="#FFFFFF"></path>
                    <path d="M26.2698903,78.2411439 C26.5490528,78.5222508 26.7215354,78.909398 26.7215354,79.3365604 C26.7215354,80.1938863 26.0306082,80.8871498 25.1761715,80.8871498 C24.7514457,80.8871498 24.3636092,80.7130837 24.0844467,80.4339776 L26.2698903,78.2411439 Z" id="Fill-534" fill="#E6E6E6"></path>
                    <path d="M25.1761715,83.9868282 C26.0306082,83.9868282 26.7215354,84.6810921 26.7215354,85.5374177 C26.7215354,86.3937432 26.0306082,87.0870068 25.1761715,87.0870068 C24.3237288,87.0870068 23.6308076,86.3937432 23.6308076,85.5374177 C23.6308076,84.6810921 24.3237288,83.9868282 25.1761715,83.9868282" id="Fill-535" fill="#FFFFFF"></path>
                    <path d="M26.2698903,84.4412009 C26.5490528,84.7213074 26.7215354,85.109455 26.7215354,85.5376177 C26.7215354,86.3929429 26.0306082,87.0872068 25.1761715,87.0872068 C24.7514457,87.0872068 24.3636092,86.9131407 24.0844467,86.6330342 L26.2698903,84.4412009 Z" id="Fill-536" fill="#E6E6E6"></path>
                </g>
            </g>
        </g>
    </g>
</svg>