<?xml version="1.0" encoding="UTF-8" standalone="no"?>
<svg width="100px" height="100px" viewBox="0 0 100 100" version="1.1" xmlns="http://www.w3.org/2000/svg" xmlns:xlink="http://www.w3.org/1999/xlink" xmlns:sketch="http://www.bohemiancoding.com/sketch/ns">
    <!-- Generator: Sketch 3.5.2 (25235) - http://www.bohemiancoding.com/sketch -->
    <title>Avatar9</title>
    <desc>Created with Sketch.</desc>
    <defs>
        <circle id="path-1" cx="50" cy="50" r="50"></circle>
    </defs>
    <g id="Page-1" stroke="none" stroke-width="1" fill="none" fill-rule="evenodd" sketch:type="MSPage">
        <g id="Avatar9" sketch:type="MSLayerGroup">
            <mask id="mask-2" sketch:name="Mask Copy 2" fill="white">
                <use xlink:href="#path-1"></use>
            </mask>
            <use id="Mask-Copy-2" fill="#95AFAC" sketch:type="MSShapeGroup" xlink:href="#path-1"></use>
            <g id="Group-11-Copy" mask="url(#mask-2)" sketch:type="MSShapeGroup">
                <g transform="translate(15.000000, 12.000000)">
                    <path d="M25.5036268,44.8690084 L44.4795334,44.8690084 L44.4795334,67.0349127 L25.5036268,67.0349127 L25.5036268,44.8690084 Z" id="Fill-260" fill="#A87841"></path>
                    <path d="M16.0167961,147.778866 C16.0167961,148.216196 15.6606087,148.569739 15.2258356,148.569739 C14.7890213,148.569739 14.4348752,148.216196 14.4348752,147.778866 L14.4348752,144.612308 C14.4348752,144.174978 14.0817496,143.820413 13.6439147,143.820413 C13.2071004,143.820413 12.8529543,144.174978 12.8529543,144.612308 L12.8529543,149.361634 C12.8529543,149.798964 12.4998287,150.153529 12.0619938,150.153529 C11.6292619,150.153529 11.2781775,149.805095 11.2710334,149.371852 L11.2710334,150.153529 C11.2710334,150.590859 10.9179078,150.945423 10.4800729,150.945423 C10.0452998,150.945423 9.68911245,150.590859 9.68911245,150.153529 L9.68911245,149.361634 C9.68911245,149.798964 9.33598688,150.153529 8.90019318,150.153529 C8.4633789,150.153529 8.10923273,149.798964 8.10923273,149.361634 L8.10923273,146.986971 C8.10923273,147.424301 7.75406597,147.778866 7.31827228,147.778866 C6.88145799,147.778866 6.52731183,147.424301 6.52731183,146.986971 L6.52731183,86.0325222 L16.0167961,86.0325222 L16.0167961,147.778866 Z" id="Fill-264" fill="#9E5031"></path>
                    <path d="M53.9691197,147.778866 C53.9691197,148.216196 54.3222453,148.569739 54.7600802,148.569739 C55.1948533,148.569739 55.5489995,148.216196 55.5489995,147.778866 L55.5489995,144.612308 C55.5489995,144.174978 55.9041662,143.820413 56.3399599,143.820413 C56.7767742,143.820413 57.1309204,144.174978 57.1309204,144.612308 L57.1309204,149.361634 C57.1309204,149.798964 57.4840459,150.153529 57.9218808,150.153529 C58.3546127,150.153529 58.7077383,149.805095 58.7128413,149.371852 L58.7128413,150.153529 C58.7128413,150.590859 59.0659668,150.945423 59.5038017,150.945423 C59.940616,150.945423 60.2947622,150.590859 60.2947622,150.153529 L60.2947622,149.361634 C60.2947622,149.798964 60.6478877,150.153529 61.0857226,150.153529 C61.5204957,150.153529 61.8766831,149.798964 61.8766831,149.361634 L61.8766831,146.986971 C61.8766831,147.424301 62.2298086,147.778866 62.6645817,147.778866 C63.1024166,147.778866 63.4565628,147.424301 63.4565628,146.986971 L63.4565628,86.0325222 L53.9691197,86.0325222 L53.9691197,147.778866 Z" id="Fill-265" fill="#9E5031"></path>
                    <path d="M63.4560525,86.0325222 L63.4560525,96.3005889 L53.9686094,86.8009157 L53.9686094,86.0325222 L63.4560525,86.0325222 Z M63.4560525,133.529867 L63.4560525,101.864289 L53.9686094,92.3656377 L53.9686094,124.030193 L63.4560525,133.529867 Z" id="Fill-266" fill="#804026"></path>
                    <path d="M25.5036268,44.8690084 L44.4795334,44.8690084 L44.4795334,67.0349127 L25.5036268,67.0349127 L25.5036268,44.8690084 Z" id="Fill-272" fill="#9E5031"></path>
                    <path d="M25.5037288,44.8685997 L44.4796355,44.8685997 L44.4796355,67.034504 L41.091263,67.034504 L25.5037288,51.4265112 L25.5037288,44.8685997 Z" id="Fill-273" fill="#804026"></path>
                    <path d="M34.9930089,0.538119505 C47.2197266,0.538119505 57.1307162,10.4618397 57.1307162,22.7040238 C57.1307162,34.9451861 47.2197266,44.8689063 34.9930089,44.8689063 L33.411088,22.7040238 L34.9930089,0.538119505 Z" id="Fill-274" fill="#222C30"></path>
                    <path d="M6.52772007,86.0325222 L6.52772007,67.0341975 C6.52772007,63.8676397 8.13209404,63.0634832 9.68952069,62.2838499 L25.5036268,54.3679664 C25.5036268,59.6353447 29.7737926,63.8676397 34.993111,63.8676397 C40.2328413,63.8676397 44.4795334,59.6138869 44.4795334,54.3679664 L60.2946601,62.2838499 C61.8510662,63.0634832 63.4564607,63.8686615 63.4564607,67.0341975 L63.4564607,84.4497542 L53.9690177,86.0325222 L53.9690177,130.363309 L16.0151631,130.363309 L16.0151631,86.0325222 L6.52772007,86.0325222 Z" id="Fill-275" fill="#FFCC00"></path>
                    <path d="M53.9691197,92.3653311 L53.9691197,124.029887 L25.5037288,95.5318889 L44.4796355,82.8656579 L53.9691197,92.3653311 Z" id="Fill-276" fill="#BA9400"></path>
                    <path d="M34.9930089,44.8691106 C22.7662912,44.8691106 12.8532604,34.9453904 12.8532604,22.7032063 C12.8532604,10.4620441 22.7662912,0.538323865 34.9930089,0.538323865 L34.9930089,44.8691106 Z" id="Fill-277" fill="#424F54"></path>
                    <path d="M28.2823984,61.0846656 C30.0000583,62.8043548 32.3708985,63.8680484 34.9928048,63.8680484 C40.2325351,63.8680484 44.4802479,59.6142956 44.4802479,54.3673534 L60.2943539,62.2842586 C61.8517806,63.0638919 63.4561545,63.8680484 63.4561545,67.0335844 L63.4561545,86.0329309 L53.9687115,86.0329309 L53.9687115,86.8013244 L28.2823984,61.0846656 Z" id="Fill-278" fill="#BA9400"></path>
                    <path d="M44.4798396,77.3013446 L46.0617605,78.0728035 L46.0617605,82.8660666 L44.4798396,86.0326244 L44.4798396,77.3013446 Z M23.922012,55.1599635 L25.5039329,54.3680686 L25.5039329,86.0326244 L23.922012,82.8660666 L23.922012,55.1599635 Z" id="Fill-279" fill="#40494D"></path>
                    <path d="M44.4798396,54.3933071 L44.4798396,54.3677621 L46.0617605,55.159657 L46.0617605,78.8848278 L44.4798396,77.301038 L44.4798396,54.3933071 Z" id="Fill-280" fill="#222C30"></path>
                    <path d="M50.8051759,25.8700706 C49.0599599,25.8700706 47.6433753,27.287307 47.6433753,29.0366284 C47.6433753,30.7849279 49.0599599,32.2031861 50.8051759,32.2031861 C52.552433,32.2031861 53.9690177,30.7849279 53.9690177,29.0366284 C53.9690177,27.287307 52.552433,25.8700706 50.8051759,25.8700706" id="Fill-281" fill="#9E5031"></path>
                    <path d="M50.8051759,27.4531452 C49.9325679,27.4531452 49.2252962,28.1622743 49.2252962,29.0359131 C49.2252962,29.9105738 49.9325679,30.6197029 50.8051759,30.6197029 C51.679825,30.6197029 52.3870968,29.9105738 52.3870968,29.0359131 C52.3870968,28.1622743 51.679825,27.4531452 50.8051759,27.4531452" id="Fill-282" fill="#804026"></path>
                    <path d="M19.1784946,25.8700706 C17.4312375,25.8700706 16.016694,27.287307 16.016694,29.0366284 C16.016694,30.7849279 17.4312375,32.2031861 19.1784946,32.2031861 C20.9257518,32.2031861 22.3423364,30.7849279 22.3423364,29.0366284 C22.3423364,27.287307 20.9257518,25.8700706 19.1784946,25.8700706" id="Fill-283" fill="#9E5031"></path>
                    <path d="M19.1784946,27.4531452 C18.3058866,27.4531452 17.5965737,28.1622743 17.5965737,29.0359131 C17.5965737,29.9105738 18.3058866,30.6197029 19.1784946,30.6197029 C20.0511026,30.6197029 20.7604155,29.9105738 20.7604155,29.0359131 C20.7604155,28.1622743 20.0511026,27.4531452 19.1784946,27.4531452" id="Fill-284" fill="#804026"></path>
                    <path d="M47.2154401,12.6875242 C49.4566648,15.4208388 50.8048697,18.9123289 50.8048697,22.7032063 L50.8048697,38.5359951 C50.8048697,47.2437735 43.6892874,54.3677621 34.9928048,54.3677621 C26.2953016,54.3677621 19.1786987,47.2437735 19.1786987,38.5359951 L19.1786987,22.7032063 C19.1786987,18.9123289 20.5269036,15.4208388 22.7681283,12.6875242 C26.271828,15.0141624 30.473614,16.3711126 34.9928048,16.3711126 C39.5099544,16.3711126 43.7117405,15.0141624 47.2154401,12.6875242" id="Fill-285" fill="#9E5031"></path>
                    <path d="M34.9930089,44.8685997 C38.485482,44.8685997 41.3186514,42.0331051 41.3186514,38.5354842 L28.6653253,38.5354842 C28.6653253,42.0331051 31.4984946,44.8685997 34.9930089,44.8685997" id="Fill-286" fill="#222C30"></path>
                    <path d="M34.9930089,44.8685997 C36.1034153,44.8685997 37.1485037,44.581474 38.0547913,44.0767048 C37.1485037,43.5729575 36.1034153,43.2858317 34.9930089,43.2858317 C33.8805613,43.2858317 32.8354729,43.5729575 31.9291853,44.0767048 C32.8354729,44.581474 33.8805613,44.8685997 34.9930089,44.8685997" id="Fill-287" fill="#DE314E"></path>
                    <path d="M27.0856497,25.8700706 C28.8308657,25.8700706 30.2474503,27.287307 30.2474503,29.0366284 C30.2474503,30.7849279 28.8308657,32.2031861 27.0856497,32.2031861 C25.3383926,32.2031861 23.9218079,30.7849279 23.9218079,29.0366284 C23.9218079,27.287307 25.3383926,25.8700706 27.0856497,25.8700706" id="Fill-288" fill="#FFFFFF"></path>
                    <path d="M39.7364243,38.5356886 C39.7364243,39.4052402 39.0220084,40.1184565 38.1545034,40.1184565 L31.8288609,40.1184565 C30.9613559,40.1184565 30.24694,39.406262 30.24694,38.5356886 L39.7364243,38.5356886 Z" id="Fill-289" fill="#FFFFFF"></path>
                    <path d="M42.8980208,25.8700706 C44.6452779,25.8700706 46.0618626,27.287307 46.0618626,29.0366284 C46.0618626,30.7849279 44.6452779,32.2031861 42.8980208,32.2031861 C41.1528048,32.2031861 39.7362202,30.7849279 39.7362202,29.0366284 C39.7362202,27.287307 41.1528048,25.8700706 42.8980208,25.8700706" id="Fill-290" fill="#FFFFFF"></path>
                    <path d="M27.0856497,27.4531452 C27.9582577,27.4531452 28.6655294,28.1622743 28.6655294,29.0359131 C28.6655294,29.9105738 27.9582577,30.6197029 27.0856497,30.6197029 C26.2110005,30.6197029 25.5037288,29.9105738 25.5037288,29.0359131 C25.5037288,28.1622743 26.2110005,27.4531452 27.0856497,27.4531452" id="Fill-291" fill="#222C30"></path>
                    <path d="M42.8980208,27.4531452 C43.7726699,27.4531452 44.4799417,28.1622743 44.4799417,29.0369349 C44.4799417,29.9105738 43.7726699,30.6197029 42.8980208,30.6197029 C42.0254128,30.6197029 41.3181411,29.9105738 41.3181411,29.0369349 C41.3181411,28.1622743 42.0254128,27.4531452 42.8980208,27.4531452" id="Fill-292" fill="#222C30"></path>
                    <path d="M25.5037288,28.2445291 C25.9415637,28.2445291 26.2946893,28.5990937 26.2946893,29.036424 C26.2946893,29.4737544 25.9415637,29.8272971 25.5037288,29.8272971 C25.0658939,29.8272971 24.7127684,29.4737544 24.7127684,29.036424 C24.7127684,28.5990937 25.0658939,28.2445291 25.5037288,28.2445291" id="Fill-293" fill="#FFFFFF"></path>
                    <path d="M41.3182431,28.2451422 C41.7530162,28.2451422 42.1092036,28.598685 42.1092036,29.0370371 C42.1092036,29.4733456 41.7530162,29.8279102 41.3182431,29.8279102 C40.8804082,29.8279102 40.5272827,29.4733456 40.5272827,29.0370371 C40.5272827,28.598685 40.8804082,28.2451422 41.3182431,28.2451422" id="Fill-294" fill="#FFFFFF"></path>
                    <path d="M31.2081356,24.5528684 C31.4979843,24.876779 31.4714489,25.3764391 31.1468999,25.6656085 C30.8233716,25.9557996 30.3243011,25.928211 30.0344523,25.6043005 C29.2792127,24.759272 28.2167742,24.2872005 27.0859559,24.2872005 C25.9520758,24.2872005 24.8916785,24.759272 24.1374594,25.6043005 C23.8476107,25.928211 23.3485402,25.9557996 23.0239913,25.6656085 C22.7004629,25.3764391 22.6729069,24.876779 22.9627556,24.5528684 C24.012947,23.3777986 25.5081174,22.7034107 27.0859559,22.7034107 C28.6607326,22.7034107 30.1569236,23.3777986 31.2081356,24.5528684" id="Fill-295" fill="#222C30"></path>
                    <path d="M47.0204046,23.7608714 C47.3102533,24.0858037 47.2837179,24.5844421 46.9591689,24.8746332 C46.6356406,25.1648244 46.1386113,25.136214 45.8487625,24.8123034 C45.0914817,23.9672749 44.0310844,23.4952034 42.8982249,23.4952034 C41.7674066,23.4952034 40.7059887,23.9672749 39.9497284,24.8123034 C39.6588591,25.136214 39.1628504,25.1648244 38.839322,24.8746332 C38.5147731,24.5844421 38.4851759,24.0858037 38.7750246,23.7608714 C39.8272572,22.5858015 41.3224276,21.9114136 42.8982249,21.9114136 C44.4750428,21.9114136 45.9712338,22.5858015 47.0204046,23.7608714" id="Fill-296" fill="#222C30"></path>
                    <path d="M50.0143175,16.3708061 C50.0143175,15.9334758 50.3705048,15.5789112 50.8052779,15.5789112 C51.2431128,15.5789112 51.5962384,15.9334758 51.5962384,16.3708061 L51.5962384,38.5356886 C51.5962384,47.6807973 44.1265099,55.1593504 34.993213,55.1593504 L33.4112921,51.5963343 L34.993213,48.0353618 C37.4222271,48.0353618 39.6389575,47.1198292 41.3178349,45.6157398 L41.3178349,52.1685422 C46.58308,49.7008956 50.0143175,44.3926453 50.0143175,38.5356886 L50.0143175,16.3708061 Z" id="Fill-297" fill="#222C30"></path>
                    <path d="M34.9930089,55.159657 L34.9930089,55.159657 C25.8576709,55.159657 18.3879424,47.680082 18.3879424,38.5359951 L18.3879424,16.3711126 C18.3879424,15.9337823 18.741068,15.5792177 19.1789029,15.5792177 C19.6157171,15.5792177 19.9698633,15.9337823 19.9698633,16.3711126 L19.9698633,38.5359951 C19.9698633,44.3929519 23.4011008,49.7001803 28.6653253,52.1688488 L28.6653253,45.6150245 C30.3442027,47.1201357 32.5609331,48.0346466 34.9930089,48.0346466 L34.9930089,55.159657 Z" id="Fill-298" fill="#424F54"></path>
                    <path d="M34.9906616,25.0786866 C36.0561618,25.0786866 37.0236851,25.4996682 37.732998,26.1852959 C38.1677711,25.5037554 38.9179078,25.0786866 39.7364243,25.0786866 L51.5957281,25.0786866 C52.033563,25.0786866 52.3866885,25.4322294 52.3866885,25.8705815 C52.3866885,26.3068901 52.033563,26.6614546 51.5957281,26.6614546 L49.2228467,26.6614546 L49.2228467,29.0371393 C49.2228467,31.2156166 47.4459923,32.9945701 45.2711063,32.9945701 L41.316304,32.9945701 C39.1424385,32.9945701 37.3635429,31.2145948 37.3635429,29.0361175 C37.3635429,27.7241265 36.3011044,26.6614546 34.9906616,26.6614546 L34.3578932,25.8705815 L34.9906616,25.0786866 Z M47.6439876,26.6614546 L39.7364243,26.6614546 C39.2985894,26.6614546 38.9454638,27.0160192 38.9454638,27.4533495 L38.9454638,29.0371393 C38.9454638,30.3409559 40.0150465,31.4118022 41.316304,31.4118022 L45.2711063,31.4118022 C46.574405,31.4118022 47.6439876,30.3409559 47.6439876,29.0371393 L47.6439876,26.6614546 Z" id="Fill-299" fill="#799DC9"></path>
                    <path d="M30.2472462,26.6613524 L22.3396829,26.6613524 L22.3396829,29.0370371 C22.3396829,30.3408537 23.4092655,31.4117 24.7125642,31.4117 L28.6653253,31.4117 C29.968624,31.4117 31.0382067,30.3408537 31.0382067,29.0360153 L31.0382067,27.4532473 C31.0382067,27.015917 30.6850811,26.6613524 30.2472462,26.6613524 L30.2472462,26.6613524 Z M18.3879424,26.6613524 C17.9501075,26.6613524 17.596982,26.3078097 17.596982,25.8704794 C17.596982,25.433149 17.9501075,25.0785845 18.3879424,25.0785845 L30.2472462,25.0785845 C31.0657627,25.0785845 31.8158994,25.5036532 32.2506725,26.1851937 C32.9599854,25.499566 33.9275087,25.0785845 34.9909677,25.0785845 L34.9909677,26.6613524 C33.6805249,26.6613524 32.6201276,27.7240243 32.6201276,29.0370371 C32.6201276,31.2144926 30.841232,32.994468 28.6653253,32.994468 L24.7125642,32.994468 C22.5366576,32.994468 20.7598032,31.2155144 20.7598032,29.0370371 L20.7598032,26.6613524 L18.3879424,26.6613524 Z" id="Fill-300" fill="#A3C6F0"></path>
                    <path d="M37.3544596,29.0363218 C37.3544596,28.6010351 37.0013341,28.2474924 36.5675816,28.2474924 C36.1328085,28.2474924 35.7796829,28.6010351 35.7796829,29.0363218 L35.7796829,32.2028796 C35.7796829,32.6381663 36.1328085,32.9937527 36.5675816,32.9937527 L38.1474613,32.9937527 C38.5873373,32.9937527 38.9384217,33.3483172 38.9384217,33.7856476 C38.9384217,34.2229779 38.5852962,34.5806079 38.1474613,34.5806079 L31.828963,34.5806079 C31.3921487,34.5806079 31.0380026,34.2229779 31.0380026,33.7856476 C31.0380026,33.3483172 31.3890869,32.9937527 31.828963,32.9937527 L33.4108839,32.9937527 C33.845657,32.9937527 34.197762,32.6381663 34.197762,32.2028796 L34.197762,29.0363218 C34.197762,28.6010351 33.845657,28.2474924 33.4108839,28.2474924 C32.9761108,28.2474924 32.6219646,28.6010351 32.6219646,29.0363218 L32.6219646,31.4109847 L31.828963,31.4109847 C30.5215819,31.4109847 29.4560816,32.476722 29.4560816,33.7856476 C29.4560816,35.0976386 30.5195407,36.1613322 31.828963,36.1613322 L38.1474613,36.1613322 C39.4579041,36.1613322 40.5203426,35.0976386 40.5203426,33.7856476 C40.5203426,32.476722 39.4579041,31.4109847 38.1474613,31.4109847 L37.3544596,31.4109847 L37.3544596,29.0363218 Z" id="Fill-301" fill="#804026"></path>
                    <path d="M25.5036268,84.4494477 L44.4795334,84.4494477 L44.4795334,95.5329107 L25.5036268,95.5329107 L25.5036268,84.4494477 Z" id="Fill-308" fill="#40494D"></path>
                    <path d="M25.5036268,82.8656579 L44.4795334,82.8656579 L44.4795334,86.0322156 L25.5036268,86.0322156 L25.5036268,82.8656579 Z" id="Fill-309" fill="#FFFFFF"></path>
                    <path d="M34.9906616,84.4493455 C37.6125679,84.4493455 39.7364243,86.575711 39.7364243,89.1986712 C39.7364243,91.8216314 37.6125679,93.9490187 34.9906616,93.9490187 C32.3707964,93.9490187 30.24694,91.8216314 30.24694,89.1986712 C30.24694,86.575711 32.3707964,84.4493455 34.9906616,84.4493455" id="Fill-310" fill="#77888F"></path>
                    <path d="M34.9906616,86.4284696 C36.5205322,86.4284696 37.760554,87.6689346 37.760554,89.198569 C37.760554,90.7292252 36.5205322,91.9696902 34.9906616,91.9696902 C33.4628321,91.9696902 32.2238309,90.7292252 32.2238309,89.198569 C32.2238309,87.6689346 33.4628321,86.4284696 34.9906616,86.4284696" id="Fill-311" fill="#222C30"></path>
                    <path d="M42.1066521,83.6575528 L43.688573,83.6575528 L43.688573,85.2403207 L42.1066521,85.2403207 L42.1066521,83.6575528 Z" id="Fill-312" fill="#222C30"></path>
                </g>
            </g>
        </g>
    </g>
</svg>