<?xml version="1.0" encoding="UTF-8" standalone="no"?>
<svg width="100px" height="100px" viewBox="0 0 100 100" version="1.1" xmlns="http://www.w3.org/2000/svg" xmlns:xlink="http://www.w3.org/1999/xlink" xmlns:sketch="http://www.bohemiancoding.com/sketch/ns">
    <!-- Generator: Sketch 3.5.2 (25235) - http://www.bohemiancoding.com/sketch -->
    <title>Avatar5</title>
    <desc>Created with Sketch.</desc>
    <defs>
        <circle id="path-1" cx="50" cy="50" r="50"></circle>
    </defs>
    <g id="Page-1" stroke="none" stroke-width="1" fill="none" fill-rule="evenodd" sketch:type="MSPage">
        <g id="Avatar5" sketch:type="MSLayerGroup">
            <mask id="mask-2" sketch:name="Mask Copy 2" fill="white">
                <use xlink:href="#path-1"></use>
            </mask>
            <use id="Mask-Copy-2" fill="#E7E2C4" sketch:type="MSShapeGroup" xlink:href="#path-1"></use>
            <g id="Group-5-Copy" mask="url(#mask-2)" sketch:type="MSShapeGroup">
                <g transform="translate(15.000000, 12.000000)">
                    <path d="M54.5502562,144.85279 C54.5502562,145.2966 54.9104968,145.654544 55.3525161,145.654544 C55.7955706,145.654544 56.154776,145.2966 56.154776,144.85279 L56.154776,141.647845 C56.154776,141.205071 56.5129462,140.846092 56.9570359,140.846092 C57.3990552,140.846092 57.7582606,141.205071 57.7582606,141.647845 L57.7582606,146.456297 C57.7582606,146.900107 58.117466,147.258051 58.5605205,147.258051 C59.0004695,147.258051 59.3565693,146.904245 59.3627804,146.466642 L59.3627804,147.258051 C59.3627804,147.699791 59.7219858,148.059804 60.1650403,148.059804 C60.6070596,148.059804 60.966265,147.699791 60.966265,147.258051 L60.966265,146.456297 C60.966265,146.900107 61.3254704,147.258051 61.7685249,147.258051 C62.2115794,147.258051 62.5707848,146.900107 62.5707848,146.456297 L62.5707848,144.052071 C62.5707848,144.494846 62.9299902,144.85279 63.3730447,144.85279 C63.815064,144.85279 64.1742694,144.494846 64.1742694,144.052071 L64.1742694,82.3387778 L54.5502562,82.3387778 L54.5502562,144.85279 Z" id="Fill-544" fill="#E47A4A"></path>
                    <path d="M25.6795626,40.6629073 L44.9275888,40.6629073 L44.9275888,63.1037288 L25.6795626,63.1037288 L25.6795626,40.6629073 Z" id="Fill-548" fill="#C79256"></path>
                    <path d="M25.6796661,40.662597 L44.9276924,40.662597 L44.9276924,63.1034185 L41.4909145,63.1034185 L25.6796661,47.3021504 L25.6796661,40.662597 Z" id="Fill-549" fill="#A87841"></path>
                    <path d="M51.3429765,21.427548 C49.5717937,21.427548 48.1349721,22.8624282 48.1349721,24.632493 C48.1349721,26.4035923 49.5717937,27.8395069 51.3429765,27.8395069 C53.1151945,27.8395069 54.5509809,26.4035923 54.5509809,24.632493 C54.5509809,22.8624282 53.1151945,21.427548 51.3429765,21.427548" id="Fill-550" fill="#C79256"></path>
                    <path d="M51.3429765,23.029917 C50.4579027,23.029917 49.7394919,23.7478744 49.7394919,24.6323895 C49.7394919,25.5179392 50.4579027,26.2358965 51.3429765,26.2358965 C52.2290855,26.2358965 52.9464611,25.5179392 52.9464611,24.6323895 C52.9464611,23.7478744 52.2290855,23.029917 51.3429765,23.029917" id="Fill-551" fill="#A87841"></path>
                    <path d="M19.2638644,21.427548 C17.4916464,21.427548 16.05586,22.8624282 16.05586,24.632493 C16.05586,26.4035923 17.4916464,27.8395069 19.2638644,27.8395069 C21.0360824,27.8395069 22.4718688,26.4035923 22.4718688,24.632493 C22.4718688,22.8624282 21.0360824,21.427548 19.2638644,21.427548" id="Fill-552" fill="#E8B274"></path>
                    <path d="M19.2638644,23.029917 C18.3777554,23.029917 17.6603798,23.7478744 17.6603798,24.6323895 C17.6603798,25.5179392 18.3777554,26.2358965 19.2638644,26.2358965 C20.1499734,26.2358965 20.867349,25.5179392 20.867349,24.6323895 C20.867349,23.7478744 20.1499734,23.029917 19.2638644,23.029917" id="Fill-553" fill="#C79256"></path>
                    <path d="M35.3037828,2.19260256 C44.125536,2.19260256 51.3427695,9.40528037 51.3427695,18.2204306 L51.3427695,34.2513623 C51.3427695,43.0665126 44.125536,50.2802249 35.3037828,50.2802249 C26.4820295,50.2802249 19.2637609,43.0665126 19.2637609,34.2513623 L19.2637609,18.2204306 C19.2637609,9.40528037 26.4820295,2.19260256 35.3037828,2.19260256" id="Fill-554" fill="#E8B274"></path>
                    <path d="M19.4897394,35.853214 C21.2081283,42.9893373 27.635524,48.2933246 35.3030581,48.2933246 C42.9716275,48.2933246 49.3990231,42.9893373 51.1174121,35.853214 L44.7935338,35.853214 L35.3030581,31.0447622 L25.8125825,35.853214 L19.4897394,35.853214 Z" id="Fill-555" fill="#C79256"></path>
                    <path d="M38.4109612,39.8608435 C40.3829677,38.7673552 41.7193774,36.6652093 41.7193774,34.2506381 L35.3033687,35.0523916 L28.8873599,34.2506381 C28.8873599,36.6652093 30.2227345,38.7673552 32.1957762,39.8608435 L38.4109612,39.8608435 Z" id="Fill-556" fill="#222C30"></path>
                    <path d="M35.3031617,40.662597 C36.4304662,40.662597 37.4904844,40.3708622 38.4107541,39.8608435 C37.4904844,39.3508248 36.4304662,39.05909 35.3031617,39.05909 C34.1758571,39.05909 33.1168741,39.3508248 32.1955692,39.8608435 C33.1168741,40.3708622 34.1758571,40.662597 35.3031617,40.662597" id="Fill-557" fill="#DE314E"></path>
                    <path d="M27.2835648,21.427548 C29.0547476,21.427548 30.4915692,22.8624282 30.4915692,24.632493 C30.4915692,26.4035923 29.0547476,27.8395069 27.2835648,27.8395069 C25.5113468,27.8395069 24.0755604,26.4035923 24.0755604,24.632493 C24.0755604,22.8624282 25.5113468,21.427548 27.2835648,21.427548" id="Fill-558" fill="#FFFFFF"></path>
                    <path d="M40.1155823,34.250845 C40.1155823,35.1312221 39.3909605,35.8533175 38.5110625,35.8533175 L32.0950538,35.8533175 C31.2151558,35.8533175 30.4915692,35.1322566 30.4915692,34.250845 L40.1155823,34.250845 Z" id="Fill-559" fill="#FFFFFF"></path>
                    <path d="M35.3031617,31.045176 C35.3031617,33.7007904 37.458394,35.8536279 40.1156858,35.8536279 L44.9271748,35.8536279 C44.9271748,33.1980134 42.7729776,31.045176 40.1156858,31.045176 L35.3031617,31.045176 Z" id="Fill-560" fill="#222C30"></path>
                    <path d="M43.3233796,21.427548 C45.0945624,21.427548 46.531384,22.8624282 46.531384,24.632493 C46.531384,26.4035923 45.0945624,27.8395069 43.3233796,27.8395069 C41.5511617,27.8395069 40.1153753,26.4035923 40.1153753,24.632493 C40.1153753,22.8624282 41.5511617,21.427548 43.3233796,21.427548" id="Fill-561" fill="#FFFFFF"></path>
                    <path d="M27.2835648,23.029917 C28.1686386,23.029917 28.8870494,23.7478744 28.8870494,24.6323895 C28.8870494,25.5179392 28.1686386,26.2358965 27.2835648,26.2358965 C26.3974558,26.2358965 25.6800802,25.5179392 25.6800802,24.6323895 C25.6800802,23.7478744 26.3974558,23.029917 27.2835648,23.029917" id="Fill-562" fill="#367878"></path>
                    <path d="M43.3233796,23.029917 C44.2084534,23.029917 44.9268642,23.7478744 44.9268642,24.6323895 C44.9268642,25.5179392 44.2084534,26.2358965 43.3233796,26.2358965 C42.4372706,26.2358965 41.719895,25.5179392 41.719895,24.6323895 C41.719895,23.7478744 42.4372706,23.029917 43.3233796,23.029917" id="Fill-563" fill="#367878"></path>
                    <path d="M25.6796661,23.8315671 C26.1227206,23.8315671 26.481926,24.1895112 26.481926,24.632286 C26.481926,25.0760954 26.1227206,25.4340395 25.6796661,25.4340395 C25.2366116,25.4340395 24.8774062,25.0760954 24.8774062,24.632286 C24.8774062,24.1895112 25.2366116,23.8315671 25.6796661,23.8315671" id="Fill-564" fill="#FFFFFF"></path>
                    <path d="M41.719481,23.8315671 C42.1615003,23.8315671 42.5207057,24.1915803 42.5207057,24.632286 C42.5207057,25.0760954 42.1615003,25.4340395 41.719481,25.4340395 C41.2764265,25.4340395 40.9172211,25.0760954 40.9172211,24.632286 C40.9172211,24.1915803 41.2764265,23.8315671 41.719481,23.8315671" id="Fill-565" fill="#FFFFFF"></path>
                    <path d="M22.4717653,15.0158995 L22.4717653,8.6039407 C20.6995473,8.6039407 19.2637609,10.0388208 19.2637609,11.8088856 L19.2637609,18.2229135 C21.0359789,18.2229135 22.4717653,16.7869989 22.4717653,15.0158995" id="Fill-566" fill="#424F54"></path>
                    <path d="M44.9280029,10.2066201 L20.8674525,10.2066201 C20.8674525,4.89435663 25.1768821,0.588681773 30.4914656,0.588681773 L54.5530512,0.588681773 C54.5530512,5.89991068 50.2436217,10.2066201 44.9280029,10.2066201" id="Fill-567" fill="#424F54"></path>
                    <path d="M44.9280029,10.2066201 L20.8674525,10.2066201 C20.8674525,10.1642047 20.8695229,10.1228239 20.8695229,10.0814431 C20.935774,7.48272724 23.0640919,5.39713365 25.6799767,5.39713365 L49.7394919,5.39713365 L49.7405271,5.39713365 C52.3564119,5.39713365 54.4847297,3.31154007 54.5509809,0.713858769 C54.4836946,5.96818904 50.2011795,10.2066201 44.9280029,10.2066201" id="Fill-568" fill="#222C30"></path>
                    <path d="M48.1346616,15.0158995 L48.1346616,8.6039407 C49.9058444,8.6039407 51.3426659,10.0388208 51.3426659,11.8088856 L51.3426659,18.221879 C49.5714831,18.221879 48.1346616,16.7859643 48.1346616,15.0158995" id="Fill-569" fill="#222C30"></path>
                    <path d="M35.3031617,31.045176 L30.4916727,31.045176 C27.8333457,31.045176 25.6791485,33.1980134 25.6791485,35.8536279 L30.4916727,35.8536279 C33.1489645,35.8536279 35.3031617,33.7007904 35.3031617,31.045176" id="Fill-570" fill="#424F54"></path>
                    <path d="M34.5043178,24.632286 C34.5043178,24.1926148 34.8624881,23.8346706 35.3034722,23.8346706 C35.7444564,23.8346706 36.1015914,24.1926148 36.1015914,24.632286 L36.1015914,27.8393 C36.1015914,28.2789713 35.7444564,28.640019 35.3034722,28.640019 L33.6989524,28.640019 C33.2538276,28.640019 32.8966925,28.9979631 32.8966925,29.4417724 C32.8966925,29.8835128 33.2558979,30.2466295 33.6989524,30.2466295 L35.3034722,30.2466295 C35.7444564,30.2466295 36.1015914,30.6045736 36.1015914,31.0452794 C36.1015914,31.4849507 35.7444564,31.8439293 35.3034722,31.8439293 L33.6989524,31.8459984 C32.369789,31.8459984 31.2932079,30.7690624 31.2932079,29.4417724 C31.2932079,28.1165515 32.3718593,27.0375465 33.6989524,27.0375465 L34.5043178,27.0375465 L34.5043178,24.632286 Z" id="Fill-571" fill="#A87841"></path>
                    <path d="M24.8807188,21.4241341 C24.4397346,21.4241341 24.0815644,21.0672245 24.0815644,20.6254842 C24.0815644,20.1847784 24.4397346,19.8278688 24.8807188,19.8278688 L29.6932429,19.8278688 C30.1342271,19.8278688 30.4913621,20.1847784 30.4913621,20.6254842 C30.4913621,21.0672245 30.1342271,21.4241341 29.6932429,21.4241341 L24.8807188,21.4241341 Z" id="Fill-572" fill="#222C30"></path>
                    <path d="M40.7730213,21.4241341 C40.3320372,21.4241341 39.9749021,21.0672245 39.9749021,20.6254842 C39.9749021,20.1847784 40.3320372,19.8278688 40.7730213,19.8278688 L45.5855455,19.8278688 C46.0265296,19.8278688 46.3846998,20.1847784 46.3846998,20.6254842 C46.3846998,21.0672245 46.0265296,21.4241341 45.5855455,21.4241341 L40.7730213,21.4241341 Z" id="Fill-573" fill="#222C30"></path>
                    <path d="M16.0559636,144.85279 C16.0559636,145.2966 15.695723,145.654544 15.2537037,145.654544 C14.8116843,145.654544 14.4514438,145.2966 14.4514438,144.85279 L14.4514438,141.647845 C14.4514438,141.205071 14.0932736,140.846092 13.6502191,140.846092 C13.2071646,140.846092 12.8479592,141.205071 12.8479592,141.647845 L12.8479592,146.456297 C12.8479592,146.900107 12.4887538,147.258051 12.0456993,147.258051 C11.6057503,147.258051 11.2496504,146.904245 11.2444746,146.466642 L11.2444746,147.258051 C11.2444746,147.699791 10.8852692,148.059804 10.4422147,148.059804 C9.9991602,148.059804 9.6399548,147.699791 9.6399548,147.258051 L9.6399548,146.456297 C9.6399548,146.900107 9.28074941,147.258051 8.83769492,147.258051 C8.39464042,147.258051 8.03543503,146.900107 8.03543503,146.456297 L8.03543503,144.052071 C8.03543503,144.494846 7.67726481,144.85279 7.23421032,144.85279 C6.79115582,144.85279 6.43195043,144.494846 6.43195043,144.052071 L6.43195043,82.3387778 L16.0559636,82.3387778 L16.0559636,144.85279 Z" id="Fill-574" fill="#E47A4A"></path>
                    <path d="M6.4323645,127.221352 L6.4323645,63.1038323 C6.4323645,59.8978528 8.06069328,59.0847196 9.6393337,58.2943459 L25.6793556,50.27888 C25.6793556,55.6128684 30.0105238,59.8978528 35.3033687,59.8978528 C40.6179523,59.8978528 44.9273818,55.5911435 44.9273818,50.27888 L60.9674037,58.2943459 C62.5460441,59.0847196 64.1754081,59.8999219 64.1754081,63.1038323 L64.1743729,127.221352 L54.5513949,127.221352 L54.5513949,117.602379 L16.0563776,117.602379 L16.0563776,127.221352 L6.4323645,127.221352 Z" id="Fill-575" fill="#9E5031"></path>
                    <path d="M28.4978239,57.0811635 C30.2400219,58.8212272 32.6457664,59.8971287 35.3030581,59.8971287 C40.6186769,59.8971287 44.9270713,55.5914538 44.9270713,50.2802249 L60.9670931,58.2936217 C62.5467687,59.0839955 64.1750975,59.8971287 64.1750975,63.1031081 L64.1740623,92.7348825 L28.4978239,57.0811635 Z" id="Fill-576" fill="#804026"></path>
                    <path d="M48.1351792,53.487032 C46.3639964,53.487032 44.9271748,52.0511173 44.9271748,50.2810525 L44.9271748,56.6919769 C43.155992,56.6919769 41.7191704,55.2560622 41.7191704,53.4859974 L41.7191704,56.6930114 C39.9479876,56.6930114 38.511166,55.2570968 38.511166,53.4859974 L38.511166,56.6930114 C36.7389481,56.6930114 35.3041968,55.2570968 35.3041968,53.4859974 L33.6996771,48.6775456 L35.3031617,43.8670246 C40.6177452,43.8670246 44.9271748,39.5623843 44.9271748,34.2511554 C44.9271748,30.7110258 47.8018531,27.8391965 51.3431835,27.8391965 L54.5511879,47.0740386 C52.7789699,47.0740386 51.3431835,45.638124 51.3431835,43.8670246 L51.3431835,50.280018 C49.5709656,50.280018 48.1351792,48.8441034 48.1351792,47.0740386 L48.1351792,53.487032 Z" id="Fill-577" fill="#222C30"></path>
                    <path d="M35.3037828,53.4859974 C35.3037828,55.2570968 33.8679964,56.6930114 32.0957784,56.6930114 L32.0957784,53.4859974 C32.0957784,55.2560622 30.6589568,56.6919769 28.887774,56.6919769 L28.887774,53.4859974 C28.887774,55.2560622 27.4519876,56.6919769 25.6797696,56.6919769 L25.6797696,50.2810525 C25.6797696,52.0511173 24.2429481,53.487032 22.4717653,53.487032 L22.4717653,47.0740386 C22.4717653,48.8441034 21.0359789,50.280018 19.2637609,50.280018 L19.2637609,43.8670246 C19.2627257,45.6370894 17.8269393,47.0740386 16.0557565,47.0740386 L19.2637609,27.8391965 C22.8061265,27.8391965 25.6797696,30.7110258 25.6797696,34.2501209 C25.6797696,39.5613498 29.988164,43.8670246 35.3027476,43.8670246 L35.3037828,43.8670246 L35.3037828,53.4859974 Z" id="Fill-578" fill="#424F54"></path>
                    <path d="M25.6796661,75.9268189 L22.4716617,69.5148601 L25.6796661,63.1029012 L28.8876705,69.5148601 L25.6796661,75.9268189 L28.8876705,82.3387778 L25.6796661,88.7497021 L28.8876705,95.1626955 L25.6796661,101.57362 L28.8876705,107.985579 L25.6796661,114.397538 L22.4716617,107.985579 L25.6796661,101.57362 L22.4716617,95.1626955 L25.6796661,88.7497021 L22.4716617,82.3387778 L25.6796661,75.9268189 Z M32.0956749,75.9268189 L28.8876705,69.5148601 L32.0956749,63.1029012 L35.3036792,69.5148601 L32.0956749,75.9268189 L35.3036792,82.3387778 L32.0956749,88.7497021 L35.3036792,95.1626955 L32.0956749,101.57362 L35.3036792,107.985579 L32.0956749,114.397538 L28.8876705,107.985579 L32.0956749,101.57362 L28.8876705,95.1626955 L32.0956749,88.7497021 L28.8876705,82.3387778 L32.0956749,75.9268189 Z M38.5106484,75.9268189 L35.3036792,69.5148601 L38.5106484,63.1029012 L41.7186528,69.5148601 L38.5106484,75.9268189 L41.7186528,82.3387778 L38.5106484,88.7497021 L41.7186528,95.1626955 L38.5106484,101.57362 L41.7186528,107.985579 L38.5106484,114.397538 L35.3036792,107.985579 L38.5106484,101.57362 L35.3036792,95.1626955 L38.5106484,88.7497021 L35.3036792,82.3387778 L38.5106484,75.9268189 Z M44.9266572,75.9268189 L41.7186528,69.5148601 L44.9266572,63.1029012 L48.1356967,69.5148601 L44.9266572,75.9268189 L48.1356967,82.3387778 L44.9266572,88.7497021 L48.1356967,95.1626955 L44.9266572,101.57362 L48.1356967,107.985579 L44.9266572,114.397538 L41.7186528,107.985579 L44.9266572,101.57362 L41.7186528,95.1626955 L44.9266572,88.7497021 L41.7186528,82.3387778 L44.9266572,75.9268189 Z M51.3426659,75.9268189 L48.1356967,69.5148601 L51.3426659,63.1029012 L54.5506703,69.5148601 L51.3426659,75.9268189 L54.5506703,82.3387778 L51.3426659,88.7497021 L54.5506703,95.1626955 L51.3426659,101.57362 L54.5506703,107.985579 L51.3426659,114.397538 L48.1356967,107.985579 L51.3426659,101.57362 L48.1356967,95.1626955 L51.3426659,88.7497021 L48.1356967,82.3387778 L51.3426659,75.9268189 Z M19.2636574,88.7497021 L16.055653,82.3387778 L19.2636574,75.9268189 L16.055653,69.5148601 L19.2636574,63.1029012 L22.4716617,69.5148601 L19.2636574,75.9268189 L22.4716617,82.3387778 L19.2636574,88.7497021 L22.4716617,95.1626955 L19.2636574,101.57362 L22.4716617,107.985579 L19.2636574,114.397538 L16.055653,107.985579 L19.2636574,101.57362 L16.055653,95.1626955 L19.2636574,88.7497021 Z" id="Fill-583" fill="#663300"></path>
                    <path d="M41.4591347,70.0331549 L37.1828307,65.7595502 L38.510959,63.1039357 L41.7189634,69.5148601 L41.4591347,70.0331549 Z M45.737509,74.3088286 L42.4974143,71.0718136 L41.7189634,69.5148601 L44.9269677,63.1039357 L48.1349721,69.5148601 L45.737509,74.3088286 Z M54.2911522,82.8581071 L50.013813,78.5834679 L51.3419413,75.9268189 L48.1349721,69.5148601 L51.3419413,63.1039357 L54.5499457,69.5148601 L51.3419413,75.9268189 L54.5499457,82.3387778 L54.2911522,82.8581071 Z" id="Fill-584" fill="#422100"></path>
                </g>
            </g>
        </g>
    </g>
</svg>