<?xml version="1.0" encoding="UTF-8" standalone="no"?>
<svg width="100px" height="100px" viewBox="0 0 100 100" version="1.1" xmlns="http://www.w3.org/2000/svg" xmlns:xlink="http://www.w3.org/1999/xlink" xmlns:sketch="http://www.bohemiancoding.com/sketch/ns">
    <!-- Generator: Sketch 3.5.2 (25235) - http://www.bohemiancoding.com/sketch -->
    <title>Avatar3</title>
    <desc>Created with Sketch.</desc>
    <defs>
        <circle id="path-1" cx="50" cy="50" r="50"></circle>
    </defs>
    <g id="Page-1" stroke="none" stroke-width="1" fill="none" fill-rule="evenodd" sketch:type="MSPage">
        <g id="Avatar3" sketch:type="MSLayerGroup">
            <mask id="mask-2" sketch:name="Mask Copy 2" fill="white">
                <use xlink:href="#path-1"></use>
            </mask>
            <use id="Mask-Copy-2" fill="#BBCCD6" sketch:type="MSShapeGroup" xlink:href="#path-1"></use>
            <g id="Group-7-Copy" mask="url(#mask-2)" sketch:type="MSShapeGroup">
                <g transform="translate(14.000000, 14.000000)">
                    <path d="M16.6685183,145.649341 C16.6685183,146.09771 16.3042537,146.459332 15.854959,146.459332 C15.4067141,146.459332 15.0424494,146.09771 15.0424494,145.649341 L15.0424494,142.410424 C15.0424494,141.964145 14.6781848,141.600433 14.2288901,141.600433 C13.7795954,141.600433 13.4153308,141.964145 13.4153308,142.410424 L13.4153308,147.269323 C13.4153308,147.716647 13.0510662,148.079313 12.6017715,148.079313 C12.1566758,148.079313 11.7945107,147.721872 11.7882121,147.279774 L11.7882121,148.079313 C11.7882121,148.525592 11.4249973,148.889304 10.9757026,148.889304 C10.5264079,148.889304 10.1621432,148.525592 10.1621432,148.079313 L10.1621432,147.269323 C10.1621432,147.716647 9.79787862,148.079313 9.34858393,148.079313 C8.89928923,148.079313 8.53607436,147.716647 8.53607436,147.269323 L8.5350246,144.839351 C8.5350246,145.28772 8.17180973,145.649341 7.72251504,145.649341 C7.27322034,145.649341 6.90895571,145.28772 6.90895571,144.839351 L6.90895571,80.8730803 L16.6685183,80.8730803 L16.6685183,145.649341 Z" id="Fill-407" fill="#FFD6CC"></path>
                    <path d="M55.705614,145.649341 C55.705614,146.09771 56.0688289,146.459332 56.5181236,146.459332 C56.9674183,146.459332 57.3316829,146.09771 57.3316829,145.649341 L57.3316829,142.410424 C57.3316829,141.964145 57.6959475,141.600433 58.1452422,141.600433 C58.5945369,141.600433 58.9588015,141.964145 58.9588015,142.410424 L58.9588015,147.269323 C58.9588015,147.716647 59.3230662,148.079313 59.7723609,148.079313 C60.2174565,148.079313 60.5796217,147.721872 60.5848704,147.279774 L60.5848704,148.079313 C60.5848704,148.525592 60.949135,148.889304 61.3984297,148.889304 C61.8477244,148.889304 62.2119891,148.525592 62.2119891,148.079313 L62.2119891,147.269323 C62.2119891,147.716647 62.5762537,148.079313 63.0244986,148.079313 C63.4737933,148.079313 63.838058,147.716647 63.838058,147.269323 L63.838058,144.839351 C63.838058,145.28772 64.2023226,145.649341 64.6516173,145.649341 C65.100912,145.649341 65.4651766,145.28772 65.4651766,144.839351 L65.4651766,80.8730803 L55.705614,80.8730803 L55.705614,145.649341 Z" id="Fill-408" fill="#FFD6CC"></path>
                    <path d="M26.427556,40.3890145 L45.9456315,40.3890145 L45.9456315,63.0593472 L26.427556,63.0593472 L26.427556,40.3890145 Z" id="Fill-409" fill="#D1AEA5"></path>
                    <path d="M26.427661,40.3887009 L45.9457365,40.3887009 L45.9457365,63.0590336 L42.4616031,63.0590336 L26.427661,47.0964689 L26.427661,40.3887009 Z" id="Fill-410" fill="#B08C82"></path>
                    <path d="M52.4526364,20.9548819 C50.6554576,20.9548819 49.1994489,22.404504 49.1994489,24.1937995 C49.1994489,25.9830951 50.6554576,27.4327171 52.4526364,27.4327171 C54.2487654,27.4327171 55.7058239,25.9830951 55.7058239,24.1937995 C55.7058239,22.404504 54.2487654,20.9548819 52.4526364,20.9548819" id="Fill-411" fill="#D1AEA5"></path>
                    <path d="M52.4526364,22.5737136 C51.554047,22.5737136 50.8265675,23.3000924 50.8265675,24.193695 C50.8265675,25.0883428 51.554047,25.8136764 52.4526364,25.8136764 C53.3512258,25.8136764 54.0787053,25.0883428 54.0787053,24.193695 C54.0787053,23.3000924 53.3512258,22.5737136 52.4526364,22.5737136" id="Fill-412" fill="#B08C82"></path>
                    <path d="M19.9214959,20.9548819 C18.1243171,20.9548819 16.6683084,22.404504 16.6683084,24.1937995 C16.6683084,25.9830951 18.1243171,27.4327171 19.9214959,27.4327171 C21.7176249,27.4327171 23.1746834,25.9830951 23.1746834,24.1937995 C23.1746834,22.404504 21.7176249,20.9548819 19.9214959,20.9548819" id="Fill-413" fill="#FFD6CC"></path>
                    <path d="M19.9214959,22.5737136 C19.0239563,22.5737136 18.295427,23.3000924 18.295427,24.193695 C18.295427,25.0883428 19.0239563,25.8136764 19.9214959,25.8136764 C20.8200853,25.8136764 21.5475648,25.0883428 21.5475648,24.193695 C21.5475648,23.3000924 20.8200853,22.5737136 19.9214959,22.5737136" id="Fill-414" fill="#DEB4A9"></path>
                    <path d="M36.1866987,1.52221264 C45.1337518,1.52221264 52.4526364,8.81003846 52.4526364,17.7157553 L52.4526364,33.9103432 C52.4526364,42.8160601 45.1337518,50.1038859 36.1866987,50.1038859 C27.2406955,50.1038859 19.9218108,42.8160601 19.9218108,33.9103432 L19.9218108,17.7157553 C19.9218108,8.80899331 27.2406955,1.52221264 36.1866987,1.52221264" id="Fill-415" fill="#FFD6CC"></path>
                    <path d="M52.0719956,37.3854645 C50.8080919,43.0804829 46.5093494,47.6760042 40.9676982,49.3869135 L46.0432586,31.3842174 L52.0719956,37.3854645 Z" id="Fill-416" fill="#DEB4A9"></path>
                    <path d="M29.6689863,6.36825624 C23.2927808,6.36825624 20.7345303,12.0611843 20.7345303,17.716487 L20.7345303,28.2421852 C20.7345303,31.3724072 23.283333,33.9100297 26.4273461,33.9100297 L45.9454215,33.9100297 C49.0883849,33.9100297 51.6361378,31.3755427 51.639287,28.2484561 L51.639287,17.716487 C51.639287,12.0549134 49.0757879,6.36825624 42.6932838,6.36825624 C40.1917201,6.36825624 37.9095549,7.30470998 36.1806102,8.84421484 C34.4527151,7.30470998 32.17055,6.36825624 29.6689863,6.36825624 M36.1869087,0.711908414 C40.8845577,0.711908414 45.1549568,2.62557672 48.2496315,5.70667675 C51.3443062,8.78777678 53.2653559,13.039444 53.2653559,17.716487 L53.2653559,33.9100297 C53.2653559,38.5881178 51.3443062,42.8387398 48.2496315,45.9198399 C45.1549568,49.0009399 40.8845577,50.913563 36.1869087,50.913563 C31.4892597,50.913563 27.2199103,49.0009399 24.1241859,45.9198399 C21.0295112,42.8387398 19.1084615,38.5881178 19.1084615,33.9100297 L19.1084615,17.716487 C19.1084615,8.36344618 26.7926605,0.711908414 36.1869087,0.711908414" id="Fill-417" fill="#663300"></path>
                    <path d="M52.7480372,38.0585406 C51.980667,41.0769317 50.3986878,43.7807329 48.2498414,45.9191083 C46.4022745,47.758571 44.1379552,49.179974 41.6132969,50.0296803 L26.3278294,34.8102167 L26.3278294,33.9092981 C26.3614215,33.9103432 26.3939639,33.9103432 26.427556,33.9103432 L45.9456315,33.9103432 C46.7245489,33.9103432 47.466725,33.754616 48.1427665,33.4724257 L52.7480372,38.0585406 Z" id="Fill-418" fill="#422100"></path>
                    <path d="M26.427661,50.1038859 C26.427661,55.4707274 30.796737,59.8216838 36.1872236,59.8216838 C41.5766605,59.8216838 45.9457365,55.4707274 45.9457365,50.1038859 L45.9457365,121.357982 L26.427661,121.357982 L26.427661,50.1038859 Z" id="Fill-419" fill="#A3C6F0"></path>
                    <path d="M29.2855112,56.9748017 C31.0522471,58.7327428 33.4918753,59.8217883 36.1865938,59.8217883 C41.5770804,59.8217883 45.9461564,55.4708319 45.9461564,50.1039904 L45.9461564,73.5623657 L29.2855112,56.9748017 Z" id="Fill-420" fill="#799DC9"></path>
                    <path d="M28.0541498,20.9548819 C29.8502788,20.9548819 31.3073373,22.404504 31.3073373,24.1937995 C31.3073373,25.9830951 29.8502788,27.4327171 28.0541498,27.4327171 C26.256971,27.4327171 24.8009623,25.9830951 24.8009623,24.1937995 C24.8009623,22.404504 26.256971,20.9548819 28.0541498,20.9548819" id="Fill-421" fill="#FFFFFF"></path>
                    <path d="M44.3199825,20.9548819 C46.1161115,20.9548819 47.57317,22.404504 47.57317,24.1937995 C47.57317,25.9830951 46.1161115,27.4337622 44.3199825,27.4337622 C42.5228037,27.4337622 41.066795,25.9830951 41.066795,24.1937995 C41.066795,22.404504 42.5228037,20.9548819 44.3199825,20.9548819" id="Fill-422" fill="#FFFFFF"></path>
                    <path d="M28.0541498,22.5737136 C28.9516894,22.5737136 29.6802187,23.3000924 29.6802187,24.193695 C29.6802187,25.0883428 28.9516894,25.8136764 28.0541498,25.8136764 C27.1555604,25.8136764 26.4280809,25.0883428 26.4280809,24.193695 C26.4280809,23.3000924 27.1555604,22.5737136 28.0541498,22.5737136" id="Fill-423" fill="#663300"></path>
                    <path d="M44.3199825,22.5737136 C45.2185719,22.5737136 45.9460514,23.3000924 45.9460514,24.193695 C45.9460514,25.0883428 45.2185719,25.8136764 44.3199825,25.8136764 C43.4213931,25.8136764 42.6939136,25.0883428 42.6939136,24.193695 C42.6939136,23.3000924 43.4213931,22.5737136 44.3199825,22.5737136" id="Fill-424" fill="#663300"></path>
                    <path d="M26.427661,23.3835998 C26.8769557,23.3835998 27.2401706,23.7473118 27.2401706,24.1935905 C27.2401706,24.6419595 26.8769557,25.0035812 26.427661,25.0035812 C25.9783663,25.0035812 25.6141017,24.6419595 25.6141017,24.1935905 C25.6141017,23.7473118 25.9783663,23.3835998 26.427661,23.3835998" id="Fill-425" fill="#FFFFFF"></path>
                    <path d="M42.6934937,23.3835998 C43.1427884,23.3835998 43.5060033,23.7473118 43.5060033,24.1935905 C43.5060033,24.6419595 43.1427884,25.0035812 42.6934937,25.0035812 C42.244199,25.0035812 41.8799344,24.6419595 41.8799344,24.1935905 C41.8799344,23.7473118 42.244199,23.3835998 42.6934937,23.3835998" id="Fill-426" fill="#FFFFFF"></path>
                    <path d="M28.0541498,30.6712166 C28.5034445,30.6712166 28.8666594,31.0338834 28.8666594,31.4812073 C28.8666594,31.927486 28.5034445,32.291198 28.0541498,32.291198 C27.6027556,32.291198 27.2416402,32.6517745 27.2416402,33.1011886 C27.2416402,33.5506028 27.5964571,33.8996827 28.0468015,33.8996827 L29.6802187,33.8996827 C30.5735593,33.8996827 31.3020886,33.1764394 31.3073373,32.2859722 C31.3125861,31.4049114 32.1849317,30.6712166 32.9281575,30.6712166 L39.4450301,30.6712166 C40.2606889,30.6712166 41.0616512,31.4738912 41.0668999,32.2859722 C41.0721487,33.1753942 41.7996282,33.8996827 42.6929688,33.8996827 L44.3274358,33.8996827 C44.7777802,33.8996827 45.132597,33.5506028 45.132597,33.1011886 C45.132597,32.6517745 44.7714817,32.291198 44.3200875,32.291198 C43.8707928,32.291198 43.5065282,31.927486 43.5065282,31.4812073 C43.5065282,31.0338834 43.8707928,30.6712166 44.3200875,30.6712166 C45.6658721,30.6712166 46.7597157,31.7623524 46.7597157,33.1011886 C46.7597157,34.4389797 45.6700711,35.5175737 44.3274358,35.5175737 L37.8137124,35.5133931 C37.1901586,35.5133931 36.6190924,35.2824152 36.1865938,34.8998905 C35.7540951,35.2824152 35.1840787,35.5133931 34.5605249,35.5133931 L28.0468015,35.5175737 C27.3760087,35.5175737 26.7671514,35.2468801 26.3273045,34.8100077 C25.8864079,34.3731353 25.6145216,33.769039 25.6145216,33.1011886 C25.6145216,31.7623524 26.7083652,30.6712166 28.0541498,30.6712166" id="Fill-427" fill="#663300"></path>
                    <path d="M35.3767086,24.193695 C35.3767086,23.7484614 35.7399235,23.3868398 36.1871186,23.3868398 C36.6343138,23.3868398 36.996479,23.7484614 36.996479,24.193695 L36.996479,27.4326126 C36.996479,27.876801 36.6343138,28.2426033 36.1871186,28.2426033 L34.56,28.2426033 C34.1086058,28.2426033 33.7474904,28.6031798 33.7474904,29.0525939 C33.7474904,29.4988727 34.1107053,29.8646749 34.56,29.8646749 L36.1871186,29.8646749 C36.6343138,29.8646749 36.996479,30.2252514 36.996479,30.6715301 C36.996479,31.1167637 36.6343138,31.4783854 36.1871186,31.4783854 L34.56,31.4815208 C33.2131657,31.4815208 32.1203718,30.3924753 32.1203718,29.0525939 C32.1203718,27.7137577 33.2142154,26.6226219 34.56,26.6226219 L35.3767086,26.6226219 L35.3767086,24.193695 Z" id="Fill-428" fill="#B08C82"></path>
                    <path d="M25.6146266,20.1413378 C25.1663816,20.1413378 24.8042165,19.7818064 24.8042165,19.3355277 C24.8042165,18.8902941 25.1663816,18.5286724 25.6146266,18.5286724 L30.493883,18.5297176 C30.9421279,18.5297176 31.3042931,18.8902941 31.3042931,19.3355277 C31.3042931,19.7818064 30.9421279,20.1413378 30.493883,20.1413378 L25.6146266,20.1413378 Z" id="Fill-429" fill="#663300"></path>
                    <path d="M41.8799344,20.1413378 C41.4327392,20.1413378 41.0695243,19.7818064 41.0695243,19.3355277 C41.0695243,18.8902941 41.4327392,18.5286724 41.8799344,18.5286724 L46.7591908,18.5297176 C47.2074358,18.5297176 47.5696009,18.8902941 47.5696009,19.3355277 C47.5696009,19.7818064 47.2074358,20.1413378 46.7591908,20.1413378 L41.8799344,20.1413378 Z" id="Fill-430" fill="#663300"></path>
                    <path d="M36.1866987,20.1448913 C37.2826419,20.1448913 38.2757091,20.5765379 39.0073876,21.2778331 C39.4535331,20.5807185 40.226152,20.1448913 41.0670049,20.1448913 L53.265146,20.1448913 C53.7154904,20.1448913 54.0787053,20.5075581 54.0787053,20.9548819 C54.0787053,21.4011607 53.7154904,21.7648726 53.265146,21.7648726 L50.8265675,21.7648726 L50.8265675,24.1937995 C50.8265675,26.4220578 48.9978961,28.2427078 46.7598207,28.2427078 L42.6930738,28.2427078 C40.4560481,28.2427078 38.6273767,26.4220578 38.6273767,24.1937995 C38.6273767,22.8518279 37.5345828,21.7648726 36.1866987,21.7648726 L35.5358513,20.9548819 L36.1866987,20.1448913 Z M49.1994489,21.7648726 L41.0670049,21.7648726 C40.6177102,21.7648726 40.2534456,22.1275394 40.2534456,22.5738182 L40.2534456,24.1937995 C40.2534456,25.5284551 41.3535878,26.6227264 42.6930738,26.6227264 L46.7598207,26.6227264 C48.0993067,26.6227264 49.1994489,25.5284551 49.1994489,24.1937995 L49.1994489,21.7648726 Z" id="Fill-431" fill="#222C30"></path>
                    <path d="M31.3072324,21.7647681 L23.1747884,21.7647681 L23.1747884,24.193695 C23.1747884,25.5283506 24.2738808,26.6226219 25.6144166,26.6226219 L29.6811635,26.6226219 C31.0206495,26.6226219 32.1207917,25.5283506 32.1207917,24.193695 L32.1207917,22.5737136 C32.1207917,22.1284801 31.7565271,21.7647681 31.3072324,21.7647681 L31.3072324,21.7647681 Z M19.1080416,21.7647681 C18.6587469,21.7647681 18.2944822,21.4021013 18.2944822,20.9547774 C18.2944822,20.5084987 18.6587469,20.1447868 19.1080416,20.1447868 L31.3072324,20.1447868 C32.1480853,20.1447868 32.9207042,20.580614 33.3668496,21.2777286 C34.0985282,20.5764334 35.0926452,20.1447868 36.1864888,20.1447868 L36.1864888,21.7647681 C34.8396545,21.7647681 33.7468606,22.8517233 33.7468606,24.193695 C33.7468606,26.4219532 31.9181892,28.2426033 29.6811635,28.2426033 L25.6144166,28.2426033 C23.3763412,28.2426033 21.5476698,26.4219532 21.5476698,24.193695 L21.5476698,21.7647681 L19.1080416,21.7647681 Z" id="Fill-432" fill="#40494D"></path>
                    <path d="M26.427661,50.1038859 L10.1617233,58.2017024 L10.0871908,58.2382826 L10.0116085,58.275908 L9.937076,58.3135334 L9.86149371,58.3522039 L9.78696118,58.3898293 L9.7113789,58.4284998 L9.63684636,58.4671703 L9.56231383,58.5058409 L9.4877813,58.5455565 L9.41429852,58.5863173 L9.33976599,58.626033 L9.26733297,58.667839 L9.26628321,58.667839 L9.19385019,58.709645 L9.12141717,58.7535412 C9.09727283,58.7681733 9.07312849,58.7817603 9.04898414,58.7963923 C9.02588956,58.8120696 9.00174522,58.8267017 8.97865063,58.8423789 L8.90726736,58.8862752 L8.83693384,58.9333069 C8.81383926,58.9489841 8.79074467,58.9646614 8.76660033,58.9813838 C8.74350574,58.9960159 8.72041115,59.0127382 8.69836632,59.0284155 C8.67527173,59.0451379 8.65217715,59.0618603 8.63013231,59.0785827 C8.60598797,59.095305 8.58394314,59.1120274 8.56189831,59.129795 C8.53880372,59.1475625 8.51675888,59.1642849 8.49471405,59.1810073 C8.47266922,59.19982 8.45062438,59.2165424 8.42857955,59.235355 C8.40653472,59.2531226 8.38448989,59.2708901 8.36349481,59.2897028 C8.34144997,59.3085155 8.32045489,59.3273282 8.29945981,59.3450957 C8.27741498,59.3639084 8.2564199,59.3837662 8.23542482,59.4036241 C8.21442974,59.4224368 8.19448442,59.4433397 8.17348934,59.4631976 C8.15354401,59.4830554 8.13359869,59.5029133 8.11260361,59.5227711 C8.09265828,59.5436741 8.0716632,59.5635319 8.05171788,59.58548 C8.03177255,59.606383 8.01182723,59.6283312 7.99293166,59.6492341 C7.97298633,59.6701371 7.95409076,59.6920853 7.93519519,59.7150786 C7.91524986,59.7370267 7.89635429,59.76002 7.87745872,59.7819681 C7.8596129,59.8049614 7.84071733,59.8279547 7.82182176,59.8519931 C7.80397594,59.8749864 7.78613013,59.8990248 7.76828431,59.9230633 C7.74938874,59.9471017 7.73259267,59.9711401 7.71474686,59.9951786 C7.69690104,60.0213073 7.68010498,60.0463909 7.66330891,60.0714745 C7.64651285,60.096558 7.62866703,60.1226868 7.61187097,60.1488155 C7.59612466,60.1738991 7.57932859,60.201073 7.56358229,60.2272017 C7.54678622,60.2554207 7.53208967,60.2815495 7.51634336,60.3087233 L7.5152936,60.3087233 C7.50059705,60.3369424 7.48485074,60.3641162 7.46910443,60.3933804 C7.45440787,60.4215995 7.43971132,60.4498185 7.42501476,60.4790827 C7.41031821,60.5083468 7.39667141,60.537611 7.38197485,60.5679204 C7.36832805,60.5961394 7.35468125,60.6274939 7.34103445,60.6588483 C7.32738764,60.6891577 7.31374084,60.719467 7.30114379,60.7518666 C7.28854675,60.782176 7.27489995,60.8145756 7.26335265,60.8469752 C7.2507556,60.8793748 7.23815856,60.9117745 7.22661126,60.9462644 C7.21506397,60.9797092 7.20351668,61.0121088 7.19196938,61.0465987 C7.18042209,61.0800435 7.16887479,61.1155786 7.15837726,61.1500685 C7.14787972,61.1845584 7.13738218,61.2200935 7.12898414,61.2556286 L7.12793439,61.2556286 C7.1184866,61.2932539 7.10903882,61.3277439 7.09959103,61.3643241 L7.09854128,61.3643241 C7.09014325,61.4019495 7.08069546,61.4385297 7.07229743,61.4772002 C7.06284964,61.5158707 7.05445161,61.552451 7.04710334,61.5921666 L7.04605358,61.5921666 C7.0387053,61.6308372 7.03030727,61.6695077 7.02400875,61.7092233 C7.01561072,61.748939 7.00931219,61.7896998 7.00196391,61.8304607 C6.99566539,61.8701763 6.98831711,61.9119823 6.98306834,61.9537883 C6.97676982,61.9955942 6.97152105,62.0374002 6.96627228,62.0802513 C6.96102351,62.1231025 6.95577474,62.1669987 6.95157572,62.210895 C6.94632695,62.2537461 6.94212794,62.2986875 6.93792892,62.3446741 C6.93477966,62.3885704 6.93058065,62.4345569 6.92743138,62.4794984 C6.92428212,62.5265301 6.92218261,62.5725166 6.92008311,62.6205935 C6.91693384,62.6665801 6.91483434,62.7146569 6.91378458,62.7627338 C6.91273483,62.8108107 6.91063532,62.8588875 6.90958557,62.9090547 L6.90958557,63.0585111 L6.90853581,63.0585111 L6.90958557,101.926567 L16.6680984,101.926567 L16.6680984,134.314698 L26.427661,134.314698 L26.427661,111.641229 L26.427661,50.1038859 Z M65.4648617,69.5363462 L65.4648617,63.0585111 C65.4648617,59.8216838 63.8135987,58.9981062 62.2127239,58.2017024 L45.9457365,50.1038859 L45.9457365,53.3438486 L45.9457365,111.641229 L45.9457365,134.314698 L55.7052991,134.314698 L55.7052991,101.925522 L65.4648617,101.925522 L65.4638119,69.5363462 L65.4648617,69.5363462 Z" id="Fill-433" fill="#BA1717"></path>
                    <path d="M65.4647567,69.5364507 L65.4647567,63.0586156 C65.4647567,59.8207431 63.8134937,58.9982107 62.2126189,58.2007618 L45.9456315,50.1039904 L45.9456315,53.3439531 L45.9456315,73.5623657 L65.4647567,92.994826 L65.4637069,69.5364507 L65.4647567,69.5364507 Z" id="Fill-434" fill="#990000"></path>
                    <path d="M19.921181,79.253935 L23.1743685,79.253935 L23.1743685,76.0150175 L19.921181,76.0150175 L19.921181,79.253935 Z M13.4148059,76.0150175 L13.4148059,79.253935 L16.6679934,79.253935 L16.6679934,76.0150175 L13.4148059,76.0150175 Z M13.4148059,85.7317702 L16.6679934,85.7317702 L16.6679934,82.4918074 L13.4148059,82.4918074 L13.4148059,85.7317702 Z M13.4148059,72.7760999 L16.6679934,72.7760999 L16.6679934,69.5361372 L13.4148059,69.5361372 L13.4148059,72.7760999 Z M19.921181,72.7760999 L23.1743685,72.7760999 L23.1743685,69.5361372 L19.921181,69.5361372 L19.921181,72.7760999 Z M19.921181,98.6863953 L23.1743685,98.6863953 L23.1743685,95.4474777 L19.921181,95.4474777 L19.921181,98.6863953 Z M13.4148059,95.4474777 L13.4148059,98.6863953 L16.6679934,98.6863953 L16.6679934,95.4474777 L13.4148059,95.4474777 Z M13.4148059,92.2096053 L16.6679934,92.2096053 L16.6679934,88.9706877 L13.4148059,88.9706877 L13.4148059,92.2096053 Z M19.921181,92.2096053 L23.1743685,92.2096053 L23.1743685,88.9706877 L19.921181,88.9706877 L19.921181,92.2096053 Z M19.921181,85.7317702 L23.1743685,85.7317702 L23.1743685,82.4918074 L19.921181,82.4918074 L19.921181,85.7317702 Z M19.921181,111.642066 L23.1743685,111.642066 L23.1743685,108.404193 L19.921181,108.404193 L19.921181,111.642066 Z M23.1743685,101.926358 L19.921181,101.926358 L19.921181,105.16423 L23.1743685,105.16423 L23.1743685,101.926358 Z M19.921181,131.075571 L23.1743685,131.075571 L23.1743685,127.836653 L19.921181,127.836653 L19.921181,131.075571 Z M19.921181,124.597736 L23.1743685,124.597736 L23.1743685,121.358818 L19.921181,121.358818 L19.921181,124.597736 Z M19.921181,118.119901 L23.1743685,118.118856 L23.1743685,114.882028 L19.921181,114.882028 L19.921181,118.119901 Z M19.921181,59.8214747 L23.1743685,59.8214747 L23.1743685,56.581512 L19.921181,56.581512 L19.921181,59.8214747 Z M13.4148059,56.581512 L13.4148059,59.8214747 L16.6679934,59.8214747 L16.6679934,56.581512 L13.4148059,56.581512 Z M19.921181,66.2993099 L23.1743685,66.2993099 L23.1743685,63.0593472 L19.921181,63.0593472 L19.921181,66.2993099 Z M13.4148059,66.2993099 L16.6679934,66.2993099 L16.6679934,63.0593472 L13.4148059,63.0593472 L13.4148059,66.2993099 Z M6.90948059,85.7317702 L10.1616184,85.7317702 L10.1616184,82.4918074 L6.90948059,82.4918074 L6.90948059,79.253935 L10.1616184,79.253935 L10.1616184,76.0150175 L6.90948059,76.0150175 L6.90948059,72.7760999 L10.1616184,72.7760999 L10.1616184,69.5361372 L6.90948059,69.5361372 L6.90948059,66.2993099 L10.1616184,66.2993099 L10.1616184,63.0593472 L6.90948059,63.0593472 C6.90948059,61.9128184 7.1099836,60.740161 7.84691088,59.8214747 L10.1616184,59.8214747 L10.1616184,58.2014934 L13.4148059,56.581512 L19.921181,53.3436396 L23.1743685,53.3436396 L23.1743685,51.7236582 L26.427556,50.1036769 L26.427556,134.314489 L16.6679934,134.314489 L16.6679934,131.075571 L16.6679934,127.836653 L16.6679934,124.597736 L16.6679934,121.358818 L16.6679934,118.119901 L16.6679934,114.882028 L16.6679934,111.642066 L16.6679934,108.404193 L16.6679934,105.16423 L16.6679934,101.926358 L6.90948059,101.926358 L6.90948059,98.6863953 L10.1616184,98.6863953 L10.1616184,95.4485229 L6.90948059,95.4474777 L6.90948059,92.2096053 L10.1616184,92.2096053 L10.1616184,88.9706877 L6.90948059,88.9706877 L6.90948059,85.7317702 Z" id="Fill-435" fill="#40494D"></path>
                    <path d="M19.921181,66.2993099 L16.6679934,66.2993099 L16.6679934,69.5371823 L19.921181,69.5371823 L19.921181,66.2993099 Z M13.4148059,59.8214747 L10.1616184,59.8214747 L10.1616184,63.0593472 L13.4148059,63.0593472 L13.4148059,59.8214747 Z M19.921181,59.8214747 L16.6679934,59.8214747 L16.6679934,63.0593472 L19.921181,63.0593472 L19.921181,59.8214747 Z M10.1616184,66.2993099 L13.4148059,66.2993099 L13.4148059,69.5371823 L10.1616184,69.5371823 L10.1616184,66.2993099 Z M26.427556,69.5361372 L23.1743685,69.5361372 L23.1743685,66.2982647 L26.427556,66.2982647 L26.427556,69.5361372 Z M26.427556,63.0593472 L23.1743685,63.0593472 L23.1743685,59.8214747 L26.427556,59.8214747 L26.427556,63.0593472 Z M26.427556,56.581512 L23.1743685,56.581512 L23.1743685,53.3436396 L26.427556,53.3436396 L26.427556,56.581512 Z M19.921181,79.253935 L16.6679934,79.253935 L16.6679934,82.4918074 L19.921181,82.4918074 L19.921181,79.253935 Z M13.4148059,72.7760999 L10.1616184,72.7760999 L10.1616184,76.0150175 L13.4148059,76.0150175 L13.4148059,72.7760999 Z M19.921181,72.7760999 L16.6679934,72.7760999 L16.6679934,76.0150175 L19.921181,76.0150175 L19.921181,72.7760999 Z M10.1616184,79.253935 L13.4148059,79.253935 L13.4148059,82.4918074 L10.1616184,82.4918074 L10.1616184,79.253935 Z M26.427556,82.4918074 L23.1743685,82.4918074 L23.1743685,79.253935 L26.427556,79.253935 L26.427556,82.4918074 Z M26.427556,76.0150175 L23.1743685,76.0150175 L23.1743685,72.7760999 L26.427556,72.7760999 L26.427556,76.0150175 Z M19.921181,92.2096053 L16.6679934,92.2096053 L16.6679934,95.4485229 L19.921181,95.4485229 L19.921181,92.2096053 Z M13.4148059,85.7317702 L10.1616184,85.7317702 L10.1616184,88.9706877 L13.4148059,88.9706877 L13.4148059,85.7317702 Z M19.921181,85.7317702 L16.6679934,85.7317702 L16.6679934,88.9706877 L19.921181,88.9706877 L19.921181,85.7317702 Z M10.1616184,92.2096053 L13.4148059,92.2096053 L13.4148059,95.4485229 L10.1616184,95.4485229 L10.1616184,92.2096053 Z M26.427556,95.4474777 L23.1743685,95.4474777 L23.1743685,92.2085602 L26.427556,92.2085602 L26.427556,95.4474777 Z M26.427556,88.9706877 L23.1743685,88.9706877 L23.1743685,85.7317702 L26.427556,85.7317702 L26.427556,88.9706877 Z M19.921181,105.16423 L16.6679934,105.16423 L16.6679934,108.404193 L19.921181,108.404193 L19.921181,105.16423 Z M13.4148059,98.6863953 L10.1616184,98.6863953 L10.1616184,101.926358 L13.4148059,101.926358 L13.4148059,98.6863953 Z M19.921181,98.6863953 L16.6679934,98.6863953 L16.6679934,101.926358 L19.921181,101.926358 L19.921181,98.6863953 Z M26.427556,108.404193 L23.1743685,108.404193 L23.1743685,105.16423 L26.427556,105.16423 L26.427556,108.404193 Z M26.427556,101.926358 L23.1743685,101.926358 L23.1743685,98.6863953 L26.427556,98.6863953 L26.427556,101.926358 Z M19.921181,118.119901 L16.6679934,118.119901 L16.6679934,121.358818 L19.921181,121.358818 L19.921181,118.119901 Z M19.921181,111.643111 L16.6679934,111.643111 L16.6679934,114.882028 L19.921181,114.882028 L19.921181,111.643111 Z M26.427556,121.358818 L23.1743685,121.358818 L23.1743685,118.119901 L26.427556,118.119901 L26.427556,121.358818 Z M26.427556,114.882028 L23.1743685,114.882028 L23.1743685,111.643111 L26.427556,111.643111 L26.427556,114.882028 Z M19.921181,131.074526 L16.6679934,131.074526 L16.6679934,134.314489 L19.921181,134.314489 L19.921181,131.074526 Z M19.921181,124.596691 L16.6679934,124.596691 L16.6679934,127.835608 L19.921181,127.835608 L19.921181,124.596691 Z M26.427556,134.314489 L23.1743685,134.314489 L23.1743685,131.074526 L26.427556,131.074526 L26.427556,134.314489 Z M26.427556,127.835608 L23.1743685,127.835608 L23.1743685,124.596691 L26.427556,124.596691 L26.427556,127.835608 Z M16.6679934,54.9625758 L19.921181,53.3436396 L19.921181,56.581512 L16.6679934,56.581512 L16.6679934,54.9625758 Z" id="Fill-436" fill="#222C30"></path>
                    <path d="M52.4530563,79.253935 L49.1998688,79.253935 L49.1998688,76.0150175 L52.4530563,76.0150175 L52.4530563,79.253935 Z M58.9594314,76.0150175 L58.9583816,79.253935 L55.7051941,79.253935 L55.7051941,76.0150175 L58.9594314,76.0150175 Z M58.9583816,85.7317702 L55.7051941,85.7317702 L55.7051941,82.4918074 L58.9583816,82.4918074 L58.9583816,85.7317702 Z M58.9583816,72.7760999 L55.7051941,72.7760999 L55.7051941,69.5361372 L58.9583816,69.5361372 L58.9583816,72.7760999 Z M52.4530563,72.7760999 L49.1998688,72.7760999 L49.1998688,69.5361372 L52.4530563,69.5361372 L52.4530563,72.7760999 Z M52.4530563,98.6863953 L49.1998688,98.6863953 L49.1998688,95.4474777 L52.4530563,95.4474777 L52.4530563,98.6863953 Z M58.9594314,95.4474777 L58.9583816,98.6863953 L55.7051941,98.6863953 L55.7051941,95.4474777 L58.9594314,95.4474777 Z M58.9583816,92.2096053 L55.7051941,92.2096053 L55.7051941,88.9706877 L58.9583816,88.9706877 L58.9583816,92.2096053 Z M52.4530563,92.2096053 L49.1998688,92.2096053 L49.1998688,88.9706877 L52.4530563,88.9706877 L52.4530563,92.2096053 Z M52.4530563,85.7317702 L49.1998688,85.7317702 L49.1998688,82.4918074 L52.4530563,82.4918074 L52.4530563,85.7317702 Z M52.4530563,111.642066 L49.1998688,111.642066 L49.1998688,108.404193 L52.4530563,108.404193 L52.4530563,111.642066 Z M49.1998688,101.926358 L52.4530563,101.926358 L52.4530563,105.16423 L49.1998688,105.16423 L49.1998688,101.926358 Z M52.4530563,131.075571 L49.1998688,131.075571 L49.1998688,127.836653 L52.4530563,127.836653 L52.4530563,131.075571 Z M52.4530563,124.597736 L49.1998688,124.597736 L49.1998688,121.358818 L52.4530563,121.358818 L52.4530563,124.597736 Z M52.4530563,118.119901 L49.1998688,118.118856 L49.1998688,114.882028 L52.4530563,114.882028 L52.4530563,118.119901 Z M52.4530563,59.8214747 L49.1998688,59.8214747 L49.1998688,56.581512 L52.4530563,56.581512 L52.4530563,59.8214747 Z M58.9594314,56.581512 L58.9583816,59.8214747 L55.7051941,59.8214747 L55.7051941,56.581512 L58.9594314,56.581512 Z M52.4530563,66.2993099 L49.1998688,66.2993099 L49.1998688,63.0593472 L52.4530563,63.0593472 L52.4530563,66.2993099 Z M58.9583816,66.2993099 L55.7051941,66.2993099 L55.7051941,63.0593472 L58.9583816,63.0593472 L58.9583816,66.2993099 Z M65.4647567,85.7317702 L62.2126189,85.7317702 L62.2126189,82.4918074 L65.4647567,82.4918074 L65.4647567,79.253935 L62.2126189,79.253935 L62.2126189,76.0150175 L65.4647567,76.0150175 L65.4647567,72.7760999 L62.2126189,72.7760999 L62.2126189,69.5361372 L65.4647567,69.5361372 L65.4647567,66.2993099 L62.2126189,66.2993099 L62.2126189,63.0593472 L65.4647567,63.0593472 C65.4647567,61.9128184 65.2632039,60.740161 64.5273264,59.8214747 L62.2126189,59.8214747 L62.2126189,58.2014934 L58.9583816,56.581512 L52.4530563,53.3436396 L49.1998688,53.3436396 L49.1998688,51.7236582 L45.9456315,50.1036769 L45.9456315,134.314489 L55.7051941,134.314489 L55.7051941,131.075571 L55.7051941,127.836653 L55.7051941,124.597736 L55.7051941,121.358818 L55.7051941,118.119901 L55.7051941,114.882028 L55.7051941,111.642066 L55.7051941,108.404193 L55.7051941,105.16423 L55.7051941,101.926358 L65.4647567,101.926358 L65.4647567,98.6863953 L62.2126189,98.6863953 L62.2126189,95.4485229 L65.4647567,95.4474777 L65.4647567,92.2096053 L62.2126189,92.2096053 L62.2126189,88.9706877 L65.4647567,88.9706877 L65.4647567,85.7317702 Z" id="Fill-437" fill="#40494D"></path>
                    <path d="M58.9592214,76.015122 L58.9581717,79.2540395 L55.7060339,79.2540395 L55.7060339,76.015122 L58.9592214,76.015122 Z M58.9581717,72.7762044 L55.7049841,72.7762044 L55.7049841,69.5362417 L58.9581717,69.5362417 L58.9581717,72.7762044 Z M52.4528464,72.7762044 L49.1996588,72.7762044 L49.1996588,69.5362417 L52.4528464,69.5362417 L52.4528464,72.7762044 Z M52.4528464,59.8215793 L49.1996588,59.8215793 L49.1996588,56.5816165 L52.4528464,56.5816165 L52.4528464,59.8215793 Z M58.9592214,56.5816165 L58.9581717,59.8215793 L55.7060339,59.8215793 L55.7060339,56.5816165 L58.9592214,56.5816165 Z M52.4528464,66.2983693 L49.1996588,66.2983693 L49.1996588,63.0584065 L52.4528464,63.0584065 L52.4528464,66.2983693 Z M58.9581717,66.2983693 L55.7049841,66.2983693 L55.7049841,63.0584065 L58.9581717,63.0584065 L58.9581717,66.2983693 Z M65.4645467,92.9956621 L65.4645467,92.2086647 L64.6761815,92.2086647 L65.4645467,92.9956621 Z M65.4645467,85.7318747 L62.212409,85.7318747 L62.212409,82.491912 L65.4645467,82.491912 L65.4645467,79.2540395 L62.212409,79.2540395 L62.212409,76.015122 L65.4645467,76.015122 L65.4645467,72.7762044 L62.212409,72.7762044 L62.212409,69.5362417 L65.4645467,69.5362417 L65.4645467,66.2983693 L62.212409,66.2983693 L62.212409,63.0584065 L65.4645467,63.0584065 C65.4645467,61.9129229 65.2640437,60.7402655 64.5271165,59.8215793 L62.212409,59.8215793 L62.212409,58.2015979 L58.9581717,56.5816165 L52.4528464,53.3437441 L49.1996588,53.3437441 L49.1996588,51.7237628 L45.9454215,50.1037814 L45.9454215,73.5621566 L49.1996588,76.8010742 L49.1996588,76.015122 L52.4528464,76.015122 L52.4528464,79.2540395 L51.6623816,79.2540395 L55.7060339,83.2778642 L55.7060339,82.491912 L58.9581717,82.491912 L58.9581717,85.7318747 L58.1687567,85.7318747 L62.212409,89.7556994 L62.212409,88.9707923 L65.4645467,88.9707923 L65.4645467,85.7318747 Z" id="Fill-438" fill="#222C30"></path>
                    <path d="M52.4530563,66.2993099 L55.7062438,66.2993099 L55.7062438,69.5371823 L52.4530563,69.5371823 L52.4530563,66.2993099 Z M58.9583816,59.8214747 L62.2115692,59.8214747 L62.2115692,63.0593472 L58.9583816,63.0593472 L58.9583816,59.8214747 Z M52.4530563,59.8214747 L55.7062438,59.8214747 L55.7062438,63.0593472 L52.4530563,63.0593472 L52.4530563,59.8214747 Z M62.2126189,66.2993099 L58.9594314,66.2993099 L58.9594314,69.5371823 L62.2126189,69.5371823 L62.2126189,66.2993099 Z M45.9456315,69.5361372 L49.198819,69.5361372 L49.198819,66.2982647 L45.9456315,66.2982647 L45.9456315,69.5361372 Z M45.9456315,63.0593472 L49.198819,63.0593472 L49.198819,59.8214747 L45.9456315,59.8214747 L45.9456315,63.0593472 Z M45.9456315,56.581512 L49.198819,56.581512 L49.198819,53.3436396 L45.9456315,53.3436396 L45.9456315,56.581512 Z M52.4530563,79.253935 L55.7062438,79.253935 L55.7062438,82.4918074 L52.4530563,82.4918074 L52.4530563,79.253935 Z M58.9583816,72.7760999 L62.2115692,72.7760999 L62.2115692,76.0150175 L58.9583816,76.0150175 L58.9583816,72.7760999 Z M52.4530563,72.7760999 L55.7062438,72.7760999 L55.7062438,76.0150175 L52.4530563,76.0150175 L52.4530563,72.7760999 Z M62.2126189,79.253935 L58.9594314,79.253935 L58.9594314,82.4918074 L62.2126189,82.4918074 L62.2126189,79.253935 Z M45.9456315,82.4918074 L49.198819,82.4918074 L49.198819,79.253935 L45.9456315,79.253935 L45.9456315,82.4918074 Z M45.9456315,76.0150175 L49.198819,76.0150175 L49.198819,72.7760999 L45.9456315,72.7760999 L45.9456315,76.0150175 Z M52.4530563,92.2096053 L55.7062438,92.2096053 L55.7062438,95.4485229 L52.4530563,95.4485229 L52.4530563,92.2096053 Z M58.9583816,85.7317702 L62.2115692,85.7317702 L62.2115692,88.9706877 L58.9583816,88.9706877 L58.9583816,85.7317702 Z M52.4530563,85.7317702 L55.7062438,85.7317702 L55.7062438,88.9706877 L52.4530563,88.9706877 L52.4530563,85.7317702 Z M62.2126189,92.2096053 L58.9594314,92.2096053 L58.9594314,95.4485229 L62.2126189,95.4485229 L62.2126189,92.2096053 Z M45.9456315,95.4474777 L49.198819,95.4474777 L49.198819,92.2085602 L45.9456315,92.2085602 L45.9456315,95.4474777 Z M45.9456315,88.9706877 L49.198819,88.9706877 L49.198819,85.7317702 L45.9456315,85.7317702 L45.9456315,88.9706877 Z M52.4530563,105.16423 L55.7062438,105.16423 L55.7062438,108.404193 L52.4530563,108.404193 L52.4530563,105.16423 Z M58.9583816,98.6863953 L62.2115692,98.6863953 L62.2115692,101.926358 L58.9583816,101.926358 L58.9583816,98.6863953 Z M52.4530563,98.6863953 L55.7062438,98.6863953 L55.7062438,101.926358 L52.4530563,101.926358 L52.4530563,98.6863953 Z M45.9456315,108.404193 L49.198819,108.404193 L49.198819,105.16423 L45.9456315,105.16423 L45.9456315,108.404193 Z M45.9456315,101.926358 L49.198819,101.926358 L49.198819,98.6863953 L45.9456315,98.6863953 L45.9456315,101.926358 Z M52.4530563,118.119901 L55.7062438,118.119901 L55.7062438,121.358818 L52.4530563,121.358818 L52.4530563,118.119901 Z M52.4530563,111.643111 L55.7062438,111.643111 L55.7062438,114.882028 L52.4530563,114.882028 L52.4530563,111.643111 Z M45.9456315,121.358818 L49.198819,121.358818 L49.198819,118.119901 L45.9456315,118.119901 L45.9456315,121.358818 Z M45.9456315,114.882028 L49.198819,114.882028 L49.198819,111.643111 L45.9456315,111.643111 L45.9456315,114.882028 Z M52.4530563,131.074526 L55.7062438,131.074526 L55.7062438,134.314489 L52.4530563,134.314489 L52.4530563,131.074526 Z M52.4530563,124.596691 L55.7062438,124.596691 L55.7062438,127.835608 L52.4530563,127.835608 L52.4530563,124.596691 Z M45.9456315,134.314489 L49.198819,134.314489 L49.198819,131.074526 L45.9456315,131.074526 L45.9456315,134.314489 Z M45.9456315,127.835608 L49.198819,127.835608 L49.198819,124.596691 L45.9456315,124.596691 L45.9456315,127.835608 Z M55.7051941,54.9625758 L52.4530563,53.3436396 L52.4530563,56.581512 L55.7051941,56.581512 L55.7051941,54.9625758 Z" id="Fill-439" fill="#222C30"></path>
                </g>
            </g>
        </g>
    </g>
</svg>