<?xml version="1.0" encoding="UTF-8" standalone="no"?>
<svg width="100px" height="100px" viewBox="0 0 100 100" version="1.1" xmlns="http://www.w3.org/2000/svg" xmlns:xlink="http://www.w3.org/1999/xlink" xmlns:sketch="http://www.bohemiancoding.com/sketch/ns">
    <!-- Generator: Sketch 3.5.2 (25235) - http://www.bohemiancoding.com/sketch -->
    <title>Avatar7</title>
    <desc>Created with Sketch.</desc>
    <defs>
        <circle id="path-1" cx="50" cy="50" r="50"></circle>
    </defs>
    <g id="Page-1" stroke="none" stroke-width="1" fill="none" fill-rule="evenodd" sketch:type="MSPage">
        <g id="Avatar7" sketch:type="MSLayerGroup">
            <mask id="mask-2" sketch:name="Mask Copy 2" fill="white">
                <use xlink:href="#path-1"></use>
            </mask>
            <use id="Mask-Copy-2" fill="#95AFAC" sketch:type="MSShapeGroup" xlink:href="#path-1"></use>
            <g id="Group-2-Copy" mask="url(#mask-2)" sketch:type="MSShapeGroup">
                <g transform="translate(23.000000, 9.000000)">
                    <path d="M27.6799908,0.670078501 C38.0289601,0.670078501 46.4167751,8.90904552 46.4187907,19.0731436 C46.4187907,25.2266345 49.5318461,30.9426405 54.7350527,34.368285 C52.1742648,41.5372949 45.222547,46.6782361 37.0493907,46.6782361 L27.6799908,46.6782361 L27.6799908,0.670078501 Z" id="Fill-1" fill="#222C30"></path>
                    <path d="M27.6799908,46.678731 L18.3105909,46.678731 C10.1374347,46.678731 3.18672469,41.5377898 0.625936784,34.3687799 C5.82914338,30.9421456 8.94219881,25.2291089 8.94219881,19.0736385 C8.94219881,8.90954041 17.3310215,0.670573393 27.6799908,0.670573393 L27.6799908,46.678731 Z" id="Fill-3" fill="#424F54"></path>
                    <path d="M9.16522217,16.2253353 C10.5589922,7.41427282 18.3179478,0.669880544 27.6802932,0.669880544 L27.6802932,34.409658 L9.16522217,16.2253353 Z" id="Fill-5" fill="#222C30"></path>
                    <path d="M52.6650573,68.1485447 L2.69492442,68.1485447 L2.69492442,60.4806834 C2.69492442,57.4143307 4.28017407,56.6353702 5.81906551,55.8801646 L19.8726615,48.9783965 L19.8726615,40.5434522 L35.488328,40.5434522 L35.488328,48.9783965 L49.541924,55.8801646 C51.0798076,56.6353702 52.6650573,57.4143307 52.6650573,60.4806834 L52.6650573,68.1485447 Z" id="Fill-7" fill="#E47A4A"></path>
                    <path d="M51.0610628,68.1485447 L42.2781951,68.1485447 L19.8720568,46.1436534 L19.8720568,40.5434522 L35.4877233,40.5434522 L35.4877233,48.9783965 L40.1568026,51.2717275 L51.0610628,68.1485447 Z" id="Fill-9" fill="#BA643C"></path>
                    <path d="M45.5350618,106.36779 C47.7380852,110.126992 49.5410169,114.142548 49.5410169,118.758904 C49.5410169,119.800157 49.4644251,120.823594 49.3182959,121.826246 L6.04188731,121.826246 C5.89575813,120.823594 5.81916628,119.800157 5.81916628,118.758904 C5.81916628,114.145518 7.67450298,110.036922 9.82109024,106.372739 C13.2395053,100.536969 15.1875584,93.2996643 15.1875584,86.5523026 C15.1875584,79.8039512 13.7081264,74.3314322 11.07377,69.0459824 L13.6264956,52.0464319 L13.6264956,52.8125252 C13.6264956,56.1867009 16.1812368,58.9472101 19.3043701,58.9472101 L36.0558131,58.9472101 C39.1789464,58.9472101 41.7336876,56.1867009 41.7336876,52.8125252 L48.7478882,62.0422666 C43.3743656,68.804475 40.171617,78.3242232 40.171617,86.5523026 C40.171617,94.7793922 42.1186624,100.53301 45.5350618,106.36779" id="Fill-11" fill="#FFFFFF"></path>
                    <path d="M45.5350618,106.36779 C46.4450939,107.920762 47.2865964,109.516295 47.9608062,111.181113 L14.9255337,78.7359736 L14.9184792,78.6775763 C16.2668988,79.7643598 17.9922309,80.4176177 19.8717545,80.4176177 C22.0576454,80.4176177 24.0319011,79.5367094 25.4488502,78.1163685 C26.0595694,77.5056714 26.8093633,77.194879 27.6800916,77.194879 C28.55082,77.194879 29.3006138,77.5056714 29.9103252,78.1163685 C31.3272744,79.5367094 33.3025378,80.4176177 35.487421,80.4176177 C37.4062483,80.4176177 39.1628218,79.7376357 40.5223271,78.610271 C40.6614017,78.4736807 40.8800916,78.3370904 41.1652955,78.1995104 C40.5152726,81.027325 40.171617,83.8590987 40.171617,86.5523026 C40.171617,94.7793922 42.1186624,100.53301 45.5350618,106.36779" id="Fill-13" fill="#E6E6E6"></path>
                    <path d="M42.2783967,68.1485447 L32.9089968,58.947507 L36.0553092,58.947507 C39.1794503,58.947507 41.7341915,56.1869978 41.7341915,52.8128221 L42.2783967,68.1485447 Z" id="Fill-15" fill="#E6E6E6"></path>
                    <path d="M43.2954558,22.140585 C41.5711315,22.140585 40.1723225,23.5134163 40.1723225,25.2079275 C40.1723225,26.901449 41.5711315,28.2742802 43.2954558,28.2742802 C45.0207879,28.2742802 46.4185891,26.901449 46.4185891,25.2079275 C46.4185891,23.5134163 45.0207879,22.140585 43.2954558,22.140585" id="Fill-17" fill="#BA643C"></path>
                    <path d="M43.2954558,23.6735634 C42.4337975,23.6735634 41.734393,24.3604739 41.734393,25.2077296 C41.734393,26.0539954 42.4337975,26.7409059 43.2954558,26.7409059 C44.1581219,26.7409059 44.8565186,26.0539954 44.8565186,25.2077296 C44.8565186,24.3604739 44.1581219,23.6735634 43.2954558,23.6735634" id="Fill-19" fill="#995535"></path>
                    <path d="M12.0650298,22.140585 C10.3396977,22.140585 8.94189647,23.5134163 8.94189647,25.2079275 C8.94189647,26.901449 10.3396977,28.2742802 12.0650298,28.2742802 C13.7903619,28.2742802 15.1881631,26.901449 15.1881631,25.2079275 C15.1881631,23.5134163 13.7903619,22.140585 12.0650298,22.140585" id="Fill-21" fill="#E47A4A"></path>
                    <path d="M12.0650298,23.6735634 C11.2023637,23.6735634 10.503967,24.3604739 10.503967,25.2077296 C10.503967,26.0539954 11.2023637,26.7409059 12.0650298,26.7409059 C12.9276958,26.7409059 13.6260925,26.0539954 13.6260925,25.2077296 C13.6260925,24.3604739 12.9276958,23.6735634 12.0650298,23.6735634" id="Fill-23" fill="#BA643C"></path>
                    <path d="M43.2954558,22.140585 L43.2954558,32.8757888 C43.2954558,41.3087536 36.2681539,48.2115114 27.6807971,48.2115114 C19.0924324,48.2115114 12.0651306,41.3107332 12.0651306,32.8757888 L12.0651306,22.140585 C18.582492,22.140585 24.3228493,18.8703367 27.6797893,13.9105261 C31.0367293,18.8703367 36.7770866,22.140585 43.2954558,22.140585" id="Fill-25" fill="#E47A4A"></path>
                    <path d="M43.2954558,22.140585 L43.2954558,32.8757888 C43.2954558,37.4802668 41.2002657,41.6294438 37.8997618,44.4463708 L14.964535,21.9208529 C20.265497,21.1121988 24.8307742,18.12008 27.6797893,13.9105261 C31.0367293,18.8703367 36.7770866,22.140585 43.2954558,22.140585" id="Fill-27" fill="#BA643C"></path>
                    <path d="M19.8725607,22.140585 C21.596885,22.140585 22.995694,23.5134163 22.995694,25.2079275 C22.995694,26.901449 21.596885,28.2742802 19.8725607,28.2742802 C18.1472286,28.2742802 16.7494274,26.901449 16.7494274,25.2079275 C16.7494274,23.5134163 18.1472286,22.140585 19.8725607,22.140585" id="Fill-29" fill="#FFFFFF"></path>
                    <path d="M35.4880257,22.140585 C37.21235,22.140585 38.611159,23.5134163 38.611159,25.2079275 C38.611159,26.901449 37.21235,28.27527 35.4880257,28.27527 C33.7626935,28.27527 32.3648923,26.901449 32.3648923,25.2079275 C32.3648923,23.5134163 33.7626935,22.140585 35.4880257,22.140585" id="Fill-31" fill="#E6E6E6"></path>
                    <path d="M19.8725607,23.6735634 C20.734219,23.6735634 21.4336235,24.3604739 21.4336235,25.2077296 C21.4336235,26.0539954 20.734219,26.7409059 19.8725607,26.7409059 C19.0098946,26.7409059 18.3114979,26.0539954 18.3114979,25.2077296 C18.3114979,24.3604739 19.0098946,23.6735634 19.8725607,23.6735634" id="Fill-33" fill="#367878"></path>
                    <path d="M35.4880257,23.6735634 C36.3496839,23.6735634 37.0490884,24.3604739 37.0490884,25.2077296 C37.0490884,26.0539954 36.3496839,26.7409059 35.4880257,26.7409059 C34.6253596,26.7409059 33.9269629,26.0539954 33.9269629,25.2077296 C33.9269629,24.3604739 34.6253596,23.6735634 35.4880257,23.6735634" id="Fill-35" fill="#367878"></path>
                    <path d="M18.3110948,24.4406465 C18.7424279,24.4406465 19.0921301,24.7841018 19.0921301,25.2077296 C19.0921301,25.6313574 18.7424279,25.9738228 18.3110948,25.9738228 C17.8797618,25.9738228 17.5300596,25.6313574 17.5300596,25.2077296 C17.5300596,24.7841018 17.8797618,24.4406465 18.3110948,24.4406465" id="Fill-37" fill="#FFFFFF"></path>
                    <path d="M33.9265598,24.4406465 C34.356885,24.4406465 34.7065873,24.7841018 34.7065873,25.2077296 C34.7065873,25.6313574 34.356885,25.9738228 33.9265598,25.9738228 C33.4952268,25.9738228 33.1455245,25.6313574 33.1455245,25.2077296 C33.1455245,24.7841018 33.4952268,24.4406465 33.9265598,24.4406465" id="Fill-39" fill="#FFFFFF"></path>
                    <path d="M33.4112781,36.119313 C33.7327623,35.8392039 34.2245625,35.8688975 34.5087586,36.1856285 C34.7929546,36.5013698 34.7637288,36.9833949 34.4422446,37.263504 C32.5697755,38.8867507 30.1772881,39.7775569 27.6809986,39.7775569 C25.1826935,39.7775569 22.7902061,38.8867507 20.9187448,37.263504 C20.5972607,36.9833949 20.567027,36.5013698 20.8512231,36.1856285 C21.1364269,35.8688975 21.6272194,35.8392039 21.9497114,36.119313 C23.5379844,37.4970931 25.5616216,38.2433907 27.6809986,38.2433907 C29.7983601,38.2433907 31.8219973,37.4970931 33.4112781,36.119313" id="Fill-41" fill="#DE314E"></path>
                    <path d="M30.7732936,56.8496586 C29.81388,57.2138993 28.77082,57.4138358 27.680394,57.4138358 C22.9367384,57.4138358 19.0920293,53.6378076 19.0920293,48.9788914 C19.0920293,48.5552636 19.4407238,48.2118084 19.8720568,48.2118084 C20.3033898,48.2118084 20.6530921,48.5552636 20.6530921,48.9788914 C20.6530921,52.7905519 23.7994045,55.8806595 27.680394,55.8806595 C28.3233623,55.8806595 28.946175,55.7945482 29.5377462,55.6361827 L30.8579478,55.8569046 L30.7732936,56.8496586 Z" id="Fill-43" fill="#FFCC00"></path>
                    <path d="M34.7069904,48.9788914 C34.7069904,48.5552636 35.0566926,48.2118084 35.4880257,48.2118084 C35.9183509,48.2118084 36.2680531,48.5552636 36.2680531,48.9788914 C36.2680531,52.5658708 33.9884379,55.630244 30.773596,56.8496586 L29.5370408,55.6361827 C32.5170683,54.8354469 34.7069904,52.1590694 34.7069904,48.9788914" id="Fill-45" fill="#BA9400"></path>
                    <path d="M26.1190289,28.2742802 C25.2563628,28.2742802 24.5569583,28.9611907 24.5569583,29.8084463 C24.5569583,30.655702 25.2563628,31.3416227 26.1190289,31.3416227 L27.6800916,31.3416227 L30.8032249,31.3416227 L27.6800916,28.2742802 L26.1190289,28.2742802 Z" id="Fill-47" fill="#E47A4A"></path>
                    <path d="M26.9022813,25.2076306 C26.9022813,24.7859823 27.2509757,24.4435169 27.6802932,24.4435169 C28.1096106,24.4435169 28.4572973,24.7859823 28.4572973,25.2076306 L28.4572973,28.2739833 C28.4572973,28.6966213 28.1096106,29.0410663 27.6802932,29.0410663 L26.1182226,29.0410663 C25.684874,29.0410663 25.3371874,29.3835318 25.3371874,29.8081494 C25.3371874,30.2317772 25.6868896,30.5782018 26.1182226,30.5782018 L27.6802932,30.5782018 C28.1096106,30.5782018 28.4572973,30.9196775 28.4572973,31.3423155 C28.4572973,31.7639638 28.1096106,32.1054395 27.6802932,32.1054395 L26.1182226,32.1084088 C24.8242235,32.1084088 23.7761246,31.0780431 23.7761246,29.8081494 C23.7761246,28.5402353 24.8262391,27.50789 26.1182226,27.50789 L26.9022813,27.50789 L26.9022813,25.2076306 Z" id="Fill-51" fill="#995535"></path>
                    <path d="M32.1273568,38.7770826 L30.9482455,37.6190346 C31.8401374,37.2627121 32.6725699,36.7599016 33.4112781,36.1195109 C33.7327623,35.8394019 34.2245625,35.8690954 34.5087586,36.1848367 C34.7929546,36.5015678 34.7637288,36.9835929 34.4422446,37.2637019 C33.7367934,37.8753888 32.9577737,38.3821585 32.1273568,38.7770826" id="Fill-55" fill="#BD2C44"></path>
                    <path d="M12.0650298,134.09522 C12.0650298,134.518848 11.7153275,134.862303 11.2850023,134.862303 C10.8536693,134.862303 10.503967,134.518848 10.503967,134.09522 L10.503967,131.027878 C10.503967,130.60425 10.1542648,130.260795 9.72293175,130.260795 C9.29159872,130.260795 8.94189647,130.60425 8.94189647,131.027878 L8.94189647,135.628397 C8.94189647,136.052024 8.59219423,136.39548 8.1608612,136.39548 C7.73255153,136.39548 7.38587265,136.057963 7.37982593,135.638294 L7.37982593,136.39548 C7.37982593,136.819107 7.03113147,137.161573 6.59979844,137.161573 C6.16846541,137.161573 5.81876317,136.819107 5.81876317,136.39548 L5.81876317,135.628397 C5.81876317,136.052024 5.46906093,136.39548 5.0377279,136.39548 C4.60740266,136.39548 4.25770041,136.052024 4.25770041,135.628397 L4.25770041,133.328137 C4.25770041,133.751765 3.90799817,134.09522 3.47666514,134.09522 C3.04533211,134.09522 2.69562987,133.751765 2.69562987,133.328137 L2.69562987,75.8167029 L12.0650298,75.8167029 L10.5029592,120.292674 L11.0753825,121.41608 C11.7566468,122.754268 12.0650298,124.036039 12.0650298,125.531604 L12.0650298,134.09522 Z" id="Fill-61" fill="#E47A4A"></path>
                    <path d="M43.2949519,134.09522 C43.2949519,134.518848 43.6456619,134.862303 44.0759872,134.862303 C44.5073202,134.862303 44.8570224,134.518848 44.8570224,134.09522 L44.8570224,131.027878 C44.8570224,130.60425 45.2057169,130.260795 45.6380577,130.260795 C46.068383,130.260795 46.4180852,130.60425 46.4180852,131.027878 L46.4180852,135.628397 C46.4180852,136.052024 46.7677874,136.39548 47.1991205,136.39548 C47.6274301,136.39548 47.974109,136.057963 47.9801557,135.638294 L47.9801557,136.39548 C47.9801557,136.819107 48.329858,137.161573 48.761191,137.161573 C49.1915163,137.161573 49.5412185,136.819107 49.5412185,136.39548 L49.5412185,135.628397 C49.5412185,136.052024 49.8909208,136.39548 50.3222538,136.39548 C50.7535868,136.39548 51.1032891,136.052024 51.1032891,135.628397 L51.1032891,133.328137 C51.1032891,133.751765 51.4529913,134.09522 51.8843243,134.09522 C52.3146496,134.09522 52.6653596,133.751765 52.6653596,133.328137 L52.6653596,75.8167029 L43.2949519,75.8167029 L44.8570224,120.292674 L44.2845992,121.41608 C43.6033349,122.754268 43.2949519,124.036039 43.2949519,125.531604 L43.2949519,134.09522 Z" id="Fill-63" fill="#E47A4A"></path>
                    <path d="M40.1720202,54.347879 L40.1720202,95.7535382 L43.2951535,95.7535382 L46.4182868,65.0811032 L40.1720202,54.347879 Z" id="Fill-67" fill="#424F54"></path>
                    <path d="M52.6639487,120.292278 L52.6639487,60.4805844 C52.6639487,57.4142317 51.078699,56.6352712 49.5418232,55.8800656 L38.9247824,50.6658803 C39.7219423,51.7110928 40.1724233,52.9988026 40.1724233,54.347879 L40.1724233,66.0807857 L43.2945488,69.1481282 L43.2945488,95.754528 L43.2945488,100.848949 L43.2945488,120.292278 L52.6639487,120.292278 Z" id="Fill-69" fill="#222C30"></path>
                    <path d="M2.69542831,120.292278 L2.69542831,60.4805844 C2.69542831,57.4142317 4.28067797,56.6352712 5.81856161,55.8800656 L16.4356024,50.6658803 C15.6374347,51.7110928 15.1879615,52.9988026 15.1879615,54.347879 L15.1879615,95.754528 L12.0648282,95.754528 L12.0648282,120.292278 L2.69542831,120.292278 Z" id="Fill-71" fill="#424F54"></path>
                </g>
            </g>
        </g>
    </g>
</svg>