<?xml version="1.0" encoding="UTF-8" standalone="no"?>
<svg width="100px" height="100px" viewBox="0 0 100 100" version="1.1" xmlns="http://www.w3.org/2000/svg" xmlns:xlink="http://www.w3.org/1999/xlink" xmlns:sketch="http://www.bohemiancoding.com/sketch/ns">
    <!-- Generator: Sketch 3.5.2 (25235) - http://www.bohemiancoding.com/sketch -->
    <title>Avatar6</title>
    <desc>Created with Sketch.</desc>
    <defs>
        <circle id="path-1" cx="50" cy="50" r="50"></circle>
    </defs>
    <g id="Page-1" stroke="none" stroke-width="1" fill="none" fill-rule="evenodd" sketch:type="MSPage">
        <g id="Avatar6" sketch:type="MSLayerGroup">
            <mask id="mask-2" sketch:name="Mask Copy 2" fill="white">
                <use xlink:href="#path-1"></use>
            </mask>
            <use id="Mask-Copy-2" fill="#F5CFCF" sketch:type="MSShapeGroup" xlink:href="#path-1"></use>
            <g id="Group-8-Copy" mask="url(#mask-2)" sketch:type="MSShapeGroup">
                <g transform="translate(15.000000, 14.000000)">
                    <path d="M16.2195023,143.201713 C16.2195023,143.63566 15.8671042,143.98565 15.4369564,143.98565 C15.0037793,143.98565 14.6544104,143.63566 14.6544104,143.201713 L14.6544104,140.066977 C14.6544104,139.635054 14.3050415,139.283041 13.8718644,139.283041 C13.4386873,139.283041 13.0893184,139.635054 13.0893184,140.066977 L13.0893184,144.769586 C13.0893184,145.202522 12.7399495,145.553523 12.3067724,145.553523 C11.8786441,145.553523 11.5312946,145.207579 11.5242265,144.779702 L11.5242265,145.553523 C11.5242265,145.985447 11.1748576,146.33746 10.7416805,146.33746 C10.3115326,146.33746 9.96115398,145.985447 9.96115398,145.553523 L9.96115398,144.769586 C9.96115398,145.202522 9.6097656,145.553523 9.17860801,145.553523 C8.74644068,145.553523 8.39606203,145.202522 8.39606203,144.769586 L8.39606203,142.417776 C8.39606203,142.851723 8.04669311,143.201713 7.61351605,143.201713 C7.18134872,143.201713 6.83097007,142.851723 6.83097007,142.417776 L6.83097007,82.0758891 L16.2195023,82.0758891 L16.2195023,143.201713 Z" id="Fill-450" fill="#E47A4A"></path>
                    <path d="M25.6054093,41.3271607 L44.3794446,41.3271607 L44.3794446,63.2682857 L25.6054093,63.2682857 L25.6054093,41.3271607 Z" id="Fill-451" fill="#BA643C"></path>
                    <path d="M25.6055103,41.3268572 L44.3795456,41.3268572 L44.3795456,63.0242032 L41.0272196,63.0242032 L25.6055103,47.5730629 L25.6055103,41.3268572 Z" id="Fill-452" fill="#995535"></path>
                    <path d="M50.637793,22.5181411 C48.9111432,22.5181411 47.5096286,23.921135 47.5096286,25.6528766 C47.5096286,27.3846181 48.9111432,28.787612 50.637793,28.787612 C52.3664623,28.787612 53.7679769,27.3846181 53.7679769,25.6528766 C53.7679769,23.921135 52.3664623,22.5181411 50.637793,22.5181411" id="Fill-453" fill="#BA643C"></path>
                    <path d="M50.637793,24.0849019 C49.7744681,24.0849019 49.0747205,24.7879162 49.0747205,25.6527754 C49.0747205,26.5186462 49.7744681,27.2206489 50.637793,27.2206489 C51.5031374,27.2206489 52.202885,26.5186462 52.202885,25.6527754 C52.202885,24.7879162 51.5031374,24.0849019 50.637793,24.0849019" id="Fill-454" fill="#995535"></path>
                    <path d="M19.3473639,22.5181411 C17.6186946,22.5181411 16.2191994,23.921135 16.2191994,25.6528766 C16.2191994,27.3846181 17.6186946,28.787612 19.3473639,28.787612 C21.0760332,28.787612 22.4775478,27.3846181 22.4775478,25.6528766 C22.4775478,23.921135 21.0760332,22.5181411 19.3473639,22.5181411" id="Fill-455" fill="#E47A4A"></path>
                    <path d="M19.3473639,24.0849019 C18.4840389,24.0849019 17.7822719,24.7879162 17.7822719,25.6527754 C17.7822719,26.5186462 18.4840389,27.2206489 19.3473639,27.2206489 C20.2127083,27.2206489 20.9124558,26.5186462 20.9124558,25.6527754 C20.9124558,24.7879162 20.2127083,24.0849019 19.3473639,24.0849019" id="Fill-456" fill="#BA643C"></path>
                    <path d="M34.9936387,3.7105377 C43.599625,3.7105377 50.6374901,10.7639453 50.6374901,19.3832034 L50.6374901,35.0568806 C50.6374901,43.6761386 43.5976055,50.7295462 34.9936387,50.7295462 C26.3876524,50.7295462 19.3477678,43.6761386 19.3477678,35.0568806 L19.3477678,19.3832034 C19.3477678,10.7629338 26.3876524,3.7105377 34.9936387,3.7105377" id="Fill-457" fill="#E47A4A"></path>
                    <path d="M50.637793,19.3835068 L50.637793,35.0561725 C50.637793,39.3673188 48.8778219,43.285991 46.0434908,46.1253593 L19.3470609,19.3835068 L50.637793,19.3835068 Z" id="Fill-458" fill="#BA643C"></path>
                    <path d="M27.1706022,22.5181411 C28.8992715,22.5181411 30.2987667,23.921135 30.2987667,25.6528766 C30.2987667,25.9249785 30.2644356,26.1859535 30.1998125,26.4368133 L24.1393725,26.4368133 C24.0767688,26.1859535 24.0404183,25.9249785 24.0404183,25.6528766 C24.0404183,23.921135 25.4419329,22.5181411 27.1706022,22.5181411" id="Fill-459" fill="#FFFFFF"></path>
                    <path d="M42.816877,22.5181411 C44.5435269,22.5181411 45.9450415,23.921135 45.9450415,25.6528766 C45.9450415,25.9249785 45.9107104,26.1859535 45.8460873,26.4368133 L39.7856473,26.4368133 C39.7200144,26.1859535 39.6866931,25.9249785 39.6866931,25.6528766 C39.6866931,23.921135 41.0882077,22.5181411 42.816877,22.5181411" id="Fill-460" fill="#E6E6E6"></path>
                    <path d="M27.1706022,24.0849019 C28.0339272,24.0849019 28.7356942,24.7879162 28.7356942,25.6527754 C28.7356942,25.9380272 28.6599639,26.2050715 28.5246592,26.4367121 L25.8165453,26.4367121 C25.6812405,26.2050715 25.6055103,25.9380272 25.6055103,25.6527754 C25.6055103,24.7879162 26.3072773,24.0849019 27.1706022,24.0849019" id="Fill-461" fill="#222C30"></path>
                    <path d="M42.816877,24.0849019 C43.6802019,24.0849019 44.3799495,24.7879162 44.3799495,25.6527754 C44.3799495,25.9380272 44.3032095,26.2050715 44.170934,26.4367121 L41.4608006,26.4367121 C41.3275153,26.2050715 41.2517851,25.9380272 41.2517851,25.6527754 C41.2517851,24.7879162 41.9515326,24.0849019 42.816877,24.0849019" id="Fill-462" fill="#222C30"></path>
                    <path d="M31.0002308,46.9659418 C31.1123116,46.5491909 31.54044,46.3023773 31.9554418,46.4146572 C32.3704436,46.5259257 32.6168193,46.9538034 32.506758,47.3705543 L31.6949297,50.3980674 C31.5858781,50.8138068 31.15674,51.061632 30.7427479,50.949352 C30.3257266,50.8380835 30.0783411,50.4102058 30.1904219,49.9934549 L31.0002308,46.9659418 Z M28.0608871,45.5255213 C28.2759611,45.1522662 28.7515471,45.0238017 29.1231302,45.2392579 C29.4977425,45.4557256 29.6259791,45.9331684 29.4109052,46.3054119 L27.8458132,49.0203618 C27.6297295,49.3926053 27.1531338,49.5210698 26.7805409,49.3056136 C26.4079481,49.091169 26.2807212,48.6137263 26.4957952,48.2394597 L28.0608871,45.5255213 Z M25.5920808,43.3709596 C25.8970213,43.0654772 26.3897728,43.0654772 26.6926938,43.3709596 C26.9976343,43.6754305 26.9976343,44.1700693 26.6926938,44.4745402 L24.4823801,46.6908053 C24.1774396,46.9962877 23.6836783,46.9962877 23.3787378,46.6908053 C23.0737973,46.3863344 23.0737973,45.8927071 23.3787378,45.5882362 L25.5920808,43.3709596 Z M23.7644573,40.650952 C24.1370501,40.4354958 24.6126361,40.5619373 24.8297295,40.9362038 C25.042784,41.3084473 24.9145474,41.7869016 24.5429643,42.0033693 L21.8338406,43.5682082 C21.4622575,43.7846759 20.984652,43.6562114 20.7685683,43.2829564 C20.5534944,42.9107129 20.681731,42.4322586 21.0533141,42.217814 L23.7644573,40.650952 Z M22.7022142,37.5485856 C23.1162063,37.4363056 23.5453444,37.6831192 23.654396,38.0998701 C23.7664767,38.516621 23.520101,38.9444987 23.1050992,39.0557672 L20.0829571,39.8670153 C19.6659358,39.9792952 19.2398269,39.7324816 19.1277461,39.3157307 C19.0176848,38.8989798 19.2640606,38.4711021 19.6790624,38.3598337 L22.7022142,37.5485856 Z M22.4780527,34.2762819 C22.9082005,34.2762819 23.2555499,34.6262717 23.2555499,35.0561725 C23.2555499,35.4880964 22.9082005,35.8370746 22.4780527,35.8370746 L19.346859,35.8370746 C18.9167111,35.8370746 18.5693617,35.4880964 18.5693617,35.0561725 C18.5693617,34.6252602 18.9167111,34.2762819 19.346859,34.2762819 L22.4780527,34.2762819 Z M37.4807212,47.3705543 C37.3686405,46.9538034 37.6150162,46.5259257 38.030018,46.4146572 C38.4470393,46.3023773 38.8751677,46.5491909 38.985229,46.9659418 L39.7940281,49.9934549 C39.9061089,50.4102058 39.6597331,50.8380835 39.2447313,50.949352 C38.8277101,51.061632 38.3995817,50.8138068 38.2895204,50.3980674 L37.4807212,47.3705543 Z M40.5765741,46.3054119 C40.3615002,45.9311453 40.4897367,45.4557256 40.8613199,45.2392579 C41.2339127,45.0238017 41.7115182,45.1522662 41.9265921,45.5255213 L43.4896646,48.2394597 C43.7047386,48.6137263 43.576502,49.091169 43.2049189,49.3056136 C42.832326,49.5210698 42.3547205,49.3936169 42.1396466,49.0203618 L40.5765741,46.3054119 Z M43.2917562,44.4745402 C42.9868157,44.1700693 42.9868157,43.6754305 43.2917562,43.3709596 C43.5966967,43.0654772 44.090458,43.0654772 44.3953985,43.3709596 L46.606722,45.5882362 C46.9106527,45.8927071 46.9106527,46.3863344 46.606722,46.6908053 C46.3007717,46.9962877 45.8080202,46.9962877 45.5050992,46.6908053 L43.2917562,44.4745402 Z M45.4424955,42.0033693 C45.0699026,41.7869016 44.9426758,41.3084473 45.1577497,40.9362038 C45.3728237,40.5619373 45.8484097,40.4334728 46.223022,40.6499405 L48.931136,42.217814 C49.3037288,42.4332701 49.4309556,42.9107129 49.2158817,43.2829564 C49.0008078,43.657223 48.5252218,43.7846759 48.1536387,43.5692198 L45.4424955,42.0033693 Z M46.8823801,39.0557672 C46.4653588,38.9444987 46.2179733,38.5156095 46.3300541,38.0988586 C46.4421349,37.6831192 46.8682438,37.4363056 47.2832456,37.5485856 L50.3053877,38.3598337 C50.7234187,38.4721136 50.9697944,38.8989798 50.8577137,39.3157307 C50.7456329,39.7324816 50.319524,39.9792952 49.9045222,39.8670153 L46.8823801,39.0557672 Z M47.5094266,35.8370746 C47.0792788,35.8370746 46.7299098,35.4880964 46.7299098,35.0561725 C46.7299098,34.6252602 47.0792788,34.2762819 47.5094266,34.2762819 L50.6375911,34.2762819 C51.0687486,34.2762819 51.4181176,34.6262717 51.4181176,35.0561725 C51.4181176,35.4880964 51.0687486,35.8370746 50.6375911,35.8370746 L47.5094266,35.8370746 Z M34.2132131,47.5961258 C34.2132131,47.1652135 34.5635918,46.8142121 34.9937396,46.8142121 C35.4238875,46.8142121 35.7722467,47.1652135 35.7722467,47.5961258 L35.7722467,50.7298497 C35.7722467,51.160762 35.4238875,51.5107518 34.9937396,51.5107518 C34.5635918,51.5107518 34.2132131,51.160762 34.2132131,50.7298497 L34.2132131,47.5961258 Z" id="Fill-463" fill="#663300"></path>
                    <path d="M33.4286477,28.7873085 C32.5653228,28.7873085 31.8635557,29.4893112 31.8635557,30.355182 C31.8635557,31.2210528 32.5653228,31.922044 33.4286477,31.922044 L34.9937396,31.922044 L38.1219041,31.922044 L34.9937396,28.7873085 L33.4286477,28.7873085 Z" id="Fill-464" fill="#E47A4A"></path>
                    <path d="M34.213516,25.6527754 C34.213516,25.2218631 34.562885,24.8718733 34.9940426,24.8718733 C35.4241904,24.8718733 35.7715398,25.2218631 35.7715398,25.6527754 L35.7715398,28.7875108 C35.7715398,29.2174116 35.4241904,29.5714476 34.9940426,29.5714476 L33.4289506,29.5714476 C32.9937541,29.5714476 32.6464046,29.9204259 32.6464046,30.3553843 C32.6464046,30.7873082 32.9957735,31.1413441 33.4289506,31.1413441 L34.9940426,31.1413441 C35.4241904,31.1413441 35.7715398,31.4903224 35.7715398,31.9222463 C35.7715398,32.3531586 35.4241904,32.7031484 34.9940426,32.7031484 L33.4289506,32.706183 C32.1324486,32.706183 31.0813127,31.6521674 31.0813127,30.3553843 C31.0813127,29.0596128 32.1324486,28.0035741 33.4289506,28.0035741 L34.213516,28.0035741 L34.213516,25.6527754 Z" id="Fill-465" fill="#995535"></path>
                    <path d="M31.2491309,21.998214 C31.5358961,22.3188695 31.509643,22.8124967 31.1885467,23.0997716 C30.8684602,23.3870465 30.3746989,23.3597351 30.0879336,23.0380682 C29.3407285,22.2025434 28.2895925,21.7342044 27.1708042,21.7342044 C26.0489867,21.7342044 24.9998702,22.2025434 24.2536747,23.0380682 C23.9669095,23.3597351 23.4731482,23.3870465 23.1520519,23.0997716 C22.8319654,22.8124967 22.8047025,22.3188695 23.0924775,21.998214 C24.1304868,20.8349531 25.6117706,20.1673424 27.1708042,20.1673424 C28.728828,20.1673424 30.2091021,20.8349531 31.2491309,21.998214" id="Fill-466" fill="#663300"></path>
                    <path d="M46.8954057,21.998214 C47.1801515,22.3188695 47.1528886,22.8124967 46.832802,23.0997716 C46.5117057,23.3870465 46.0209737,23.3597351 45.7342084,23.0380682 C44.9849838,22.2025434 43.9358673,21.7342044 42.817079,21.7342044 C41.6952614,21.7342044 40.646145,22.2025434 39.8969203,23.0380682 C39.6131843,23.3597351 39.119423,23.3870465 38.7983267,23.0997716 C38.4782402,22.8124967 38.4509773,22.3188695 38.7387523,21.998214 C39.7767616,20.8349531 41.256026,20.1673424 42.817079,20.1673424 C44.3751028,20.1673424 45.8553768,20.8349531 46.8954057,21.998214" id="Fill-467" fill="#663300"></path>
                    <path d="M18.5693617,19.3835068 C18.5693617,18.9525945 18.9167111,18.6026047 19.3478687,18.6026047 C19.7780166,18.6026047 20.1273855,18.9525945 20.1273855,19.3835068 L20.125366,22.5182423 C20.125366,22.9491546 19.7780166,23.2991444 19.3478687,23.2991444 C18.9167111,23.2991444 18.5673422,22.9491546 18.5673422,22.5182423 L18.5693617,19.3835068 Z" id="Fill-468" fill="#663300"></path>
                    <path d="M49.8597908,19.3835068 C49.8597908,18.9525945 50.2091598,18.6026047 50.6403173,18.6026047 C51.0684457,18.6026047 51.4178146,18.9525945 51.4178146,19.3835068 L51.4178146,22.5182423 C51.4178146,22.9491546 51.0684457,23.2991444 50.6382979,23.2991444 C50.2091598,23.2991444 49.8597908,22.9491546 49.8597908,22.5182423 L49.8597908,19.3835068 Z" id="Fill-469" fill="#663300"></path>
                    <path d="M26.3879553,0.576004569 L42.8163722,0.576004569 C46.2585647,0.576004569 48.5072485,3.44470728 49.0747205,6.84547545 L50.637793,16.2486702 L34.9939416,19.3834057 L18.564515,16.2486702 L20.1296069,6.84547545 C20.6950595,3.44470728 22.9457627,0.576004569 26.3879553,0.576004569" id="Fill-470" fill="#5BA3A3"></path>
                    <path d="M34.9936387,0.576004569 L43.5976055,0.576004569 C47.0387883,0.576004569 49.2905013,3.44470728 49.8549441,6.84547545 L51.4200361,16.2486702 L34.9936387,19.3834057 L34.9936387,0.576004569 Z" id="Fill-471" fill="#367878"></path>
                    <path d="M14.6544104,19.3835068 L55.332665,19.3835068 C56.191951,19.3835068 56.8957375,18.6784695 56.8957375,17.8156333 C56.8957375,16.9538087 56.191951,16.2487714 55.332665,16.2487714 L14.6544104,16.2487714 C13.7931049,16.2487714 13.0893184,16.9538087 13.0893184,17.8156333 C13.0893184,18.6784695 13.7931049,19.3835068 14.6544104,19.3835068" id="Fill-472" fill="#367878"></path>
                    <path d="M18.5649189,16.2488725 L50.6381969,16.2488725 L50.1171727,13.1141371 L19.0869528,13.1141371 L18.5649189,16.2488725 Z" id="Fill-473" fill="#FFFFFF"></path>
                    <path d="M34.9936387,16.2488725 L51.4200361,16.2488725 L50.9000216,13.1141371 L34.9936387,13.1141371 L34.9936387,16.2488725 Z" id="Fill-474" fill="#E6E6E6"></path>
                    <path d="M25.6055103,24.8687375 C26.0386873,24.8687375 26.3880563,25.2207504 26.3880563,25.6526742 C26.3880563,26.0866212 26.0386873,26.436611 25.6055103,26.436611 C25.1753624,26.436611 24.8229643,26.0866212 24.8229643,25.6526742 C24.8229643,25.2207504 25.1753624,24.8687375 25.6055103,24.8687375" id="Fill-475" fill="#FFFFFF"></path>
                    <path d="M41.2517851,24.8687375 C41.6819329,24.8687375 42.034331,25.2207504 42.034331,25.6526742 C42.034331,26.0866212 41.6819329,26.436611 41.2517851,26.436611 C40.818608,26.436611 40.4692391,26.0866212 40.4692391,25.6526742 C40.4692391,25.2207504 40.818608,24.8687375 41.2517851,24.8687375" id="Fill-476" fill="#FFFFFF"></path>
                    <path d="M40.7361125,36.8040985 C41.0572088,36.5188467 41.5499603,36.5491927 41.8347061,36.8718711 C42.1194519,37.1935381 42.0901695,37.6881769 41.7670537,37.9734287 C39.8909629,39.63234 37.4958673,40.5427182 34.9937396,40.5427182 C32.491612,40.5427182 30.0944969,39.63234 28.2173963,37.9734287 C27.8973098,37.6881769 27.8660079,37.1935381 28.1507537,36.8718711 C28.4375189,36.5491927 28.928251,36.5188467 29.2513668,36.8040985 C30.8437216,38.2111386 32.8702633,38.9748447 34.9937396,38.9748447 C37.1151965,38.9748447 39.1437577,38.2111386 40.7361125,36.8040985" id="Fill-477" fill="#995535"></path>
                    <path d="M6.83127299,82.0754845 L6.83127299,63.2680834 C6.83127299,60.1343595 8.41857916,59.3382844 9.96145691,58.566486 L25.6053083,50.7291416 C25.6053083,55.9456084 29.8300469,60.1343595 34.9938406,60.1343595 C40.1778291,60.1343595 44.3793437,55.9243663 44.3793437,50.7291416 L60.0262243,58.566486 C61.5660728,59.3382844 63.1564082,60.135371 63.1564082,63.2680834 L63.153379,80.5086225 L53.7678759,82.0754845 L53.7678759,116.557574 L16.2198053,116.557574 L16.2198053,82.0754845 L6.83127299,82.0754845 Z" id="Fill-478" fill="#669999"></path>
                    <path d="M53.7679769,87.9650242 L53.7679769,110.062937 L38.5411468,94.8070218 L49.5684818,83.7590771 L53.7679769,87.9650242 Z" id="Fill-479" fill="#367878"></path>
                    <path d="M28.3544176,57.379454 C30.0538045,59.0808496 32.4014425,60.1348652 34.9934367,60.1348652 C40.1774252,60.1348652 44.3799495,55.9238605 44.3799495,50.7296474 L60.0258204,58.5669917 C61.5666787,59.3377786 63.1560043,60.1348652 63.1560043,63.2675776 L63.1560043,82.0749787 L53.7684818,82.0749787 L53.7684818,82.8366618 L28.3544176,57.379454 Z" id="Fill-480" fill="#367878"></path>
                    <path d="M53.7679769,143.201713 C53.7679769,143.63566 54.1173458,143.98565 54.5505229,143.98565 C54.9806708,143.98565 55.3330689,143.63566 55.3330689,143.201713 L55.3330689,140.066977 C55.3330689,139.635054 55.6824378,139.283041 56.1135954,139.283041 C56.5457627,139.283041 56.8961414,139.635054 56.8961414,140.066977 L56.8961414,144.769586 C56.8961414,145.202522 57.2475298,145.553523 57.6786873,145.553523 C58.1068157,145.553523 58.4561846,145.207579 58.4612333,144.779702 L58.4612333,145.553523 C58.4612333,145.985447 58.8106022,146.33746 59.2437793,146.33746 C59.6759466,146.33746 60.0263253,145.985447 60.0263253,145.553523 L60.0263253,144.769586 C60.0263253,145.202522 60.3756942,145.553523 60.8088713,145.553523 C61.2390191,145.553523 61.5914172,145.202522 61.5914172,144.769586 L61.5914172,142.417776 C61.5914172,142.851723 61.9407862,143.201713 62.370934,143.201713 C62.8041111,143.201713 63.15348,142.851723 63.15348,142.417776 L63.15348,82.0758891 L53.7679769,82.0758891 L53.7679769,143.201713 Z" id="Fill-489" fill="#E47A4A"></path>
                    <path d="M63.1538839,92.2418796 L63.1538839,82.0749787 L53.7683808,82.0749787 L53.7683808,82.8366618 L63.1538839,92.2418796 Z M63.1538839,119.466233 L63.1538839,97.3693317 L53.7683808,87.9651254 L53.7683808,110.062026 L63.1538839,119.466233 Z" id="Fill-490" fill="#BA643C"></path>
                    <path d="M29.2401587,63.3937156 L53.767674,87.9648219 L53.767674,95.8679158 L51.3645005,94.4244607 L43.5854886,95.9832304 C41.4710999,96.4060504 39.4576848,95.7960971 37.9329823,94.2676733 L29.3946484,85.7141648 C27.8699459,84.1867526 27.2600649,82.1697592 27.6841543,80.0516127 L29.2401587,72.2597872 L25.9191345,66.7176074 L15.1745258,55.953903 L19.6012117,53.737638 L29.2401587,63.3937156 Z" id="Fill-492" fill="#663300"></path>
                    <path d="M34.2179589,71.70476 L51.9176343,89.4379149 L50.8129823,90.5455417 L33.1102777,72.8133983 L34.2179589,71.70476 Z M35.3236206,79.4632049 L44.1729535,88.3292766 L43.0683015,89.4379149 L34.2179589,80.5718432 L35.3236206,79.4632049 Z M53.7684818,94.6139205 L53.7684818,95.8682193 L51.3642986,94.4237526 L43.5862964,95.9825223 C43.0430581,96.0917677 42.5048684,96.1322289 41.980815,96.1069406 L39.1959611,93.3151143 C39.8038226,93.9250677 40.8014425,93.9250677 41.4082943,93.3151143 L45.8329607,88.8835958 C46.4428417,88.2736424 46.4428417,87.2762726 45.8329607,86.6663192 L53.7684818,94.6139205 Z" id="Fill-493" fill="#422100"></path>
                </g>
            </g>
        </g>
    </g>
</svg>