<?xml version="1.0" encoding="utf-8"?>
<!-- Generator: Adobe Illustrator 17.1.0, SVG Export Plug-In . SVG Version: 6.00 Build 0)  -->
<!DOCTYPE svg PUBLIC "-//W3C//DTD SVG 1.1//EN" "http://www.w3.org/Graphics/SVG/1.1/DTD/svg11.dtd">
<svg version="1.1" id="Layer_1" xmlns="http://www.w3.org/2000/svg" xmlns:xlink="http://www.w3.org/1999/xlink" x="0px" y="0px"
	 width="100px" height="100px" viewBox="0 0 100 100" enable-background="new 0 0 100 100" xml:space="preserve">
<g>
	<g>
		<g>
			<defs>
				<rect id="SVGID_1_" x="23" y="21" width="54" height="55"/>
			</defs>
			<defs>
				<path id="SVGID_2_" d="M32.8,68.2l13.5-13.5l2,2c0.4,0.4,1,0.4,1.4,0l26.7-25.3c0.4-0.4,0.4-1,0-1.4l-7.8-7.8
					c-0.4-0.4-1-0.4-1.4,0L41.9,49c-0.4,0.4-0.4,1,0,1.4l1.6,1.6l0,0L30.1,65.5l-1.4-1.4L23,71.8l3.9,3.9l7.6-5.7L32.8,68.2
					L32.8,68.2z M32.8,68.2"/>
			</defs>
			<defs>
				<path id="SVGID_3_" d="M-10-11h120v120H-10V-11z M-10-11"/>
			</defs>
			<defs>
				<rect id="SVGID_4_" x="23" y="-716" width="612" height="792"/>
			</defs>
			<clipPath id="SVGID_5_">
				<use xlink:href="#SVGID_1_"  overflow="visible"/>
			</clipPath>
			<clipPath id="SVGID_6_" clip-path="url(#SVGID_5_)">
				<use xlink:href="#SVGID_2_"  overflow="visible"/>
			</clipPath>
			<clipPath id="SVGID_7_" clip-path="url(#SVGID_6_)">
				<use xlink:href="#SVGID_3_"  overflow="visible"/>
			</clipPath>
			<clipPath id="SVGID_8_" clip-path="url(#SVGID_7_)">
				<use xlink:href="#SVGID_4_"  overflow="visible"/>
			</clipPath>
			<path clip-path="url(#SVGID_8_)" fill="none" stroke="#2C9AD6" stroke-width="2" stroke-miterlimit="10" d="M32.8,68.2l13.5-13.5
				l2,2c0.4,0.4,1,0.4,1.4,0l26.7-25.3c0.4-0.4,0.4-1,0-1.4l-7.8-7.8c-0.4-0.4-1-0.4-1.4,0L41.9,49c-0.4,0.4-0.4,1,0,1.4l1.6,1.6
				l0,0L30.1,65.5l-1.4-1.4L23,71.8l3.9,3.9l7.6-5.7L32.8,68.2L32.8,68.2z M32.8,68.2"/>
		</g>
	</g>
	<g>
		<g>
			<defs>
				<rect id="SVGID_9_" x="24" y="23" width="23" height="24"/>
			</defs>
			<defs>
				<path id="SVGID_10_" d="M32.6,24.1l1.1-1.1l8.5,3.1L47,36.7l-9.5,9.5l-10.6-4.9L24,32.7l1-1l5.8,5.8l3.8,0l3.8-3.8l0-3.8
					L32.6,24.1L32.6,24.1z M32.6,24.1"/>
			</defs>
			<defs>
				<path id="SVGID_11_" d="M-9-11h120v120H-9V-11z M-9-11"/>
			</defs>
			<defs>
				<rect id="SVGID_12_" x="24" y="-745" width="612" height="792"/>
			</defs>
			<clipPath id="SVGID_13_">
				<use xlink:href="#SVGID_9_"  overflow="visible"/>
			</clipPath>
			<clipPath id="SVGID_14_" clip-path="url(#SVGID_13_)">
				<use xlink:href="#SVGID_10_"  overflow="visible"/>
			</clipPath>
			<clipPath id="SVGID_15_" clip-path="url(#SVGID_14_)">
				<use xlink:href="#SVGID_11_"  overflow="visible"/>
			</clipPath>
			<clipPath id="SVGID_16_" clip-path="url(#SVGID_15_)">
				<use xlink:href="#SVGID_12_"  overflow="visible"/>
			</clipPath>
			<path clip-path="url(#SVGID_16_)" fill="none" stroke="#2C9AD6" stroke-width="2" stroke-miterlimit="10" d="M32.6,24.1l1.1-1.1
				l8.5,3.1L47,36.7l-9.5,9.5l-10.6-4.9L24,32.7l1-1l5.8,5.8l3.8,0l3.8-3.8l0-3.8L32.6,24.1L32.6,24.1z M32.6,24.1"/>
		</g>
	</g>
	<g>
		<g>
			<defs>
				<rect id="SVGID_17_" x="54" y="53" width="23" height="23"/>
			</defs>
			<defs>
				<path id="SVGID_18_" d="M54,60.6L69.4,76l7.6-7.6L61.6,53L54,60.6L54,60.6z M54,60.6"/>
			</defs>
			<defs>
				<path id="SVGID_19_" d="M-9-11h120v120H-9V-11z M-9-11"/>
			</defs>
			<defs>
				<rect id="SVGID_20_" x="54" y="-716" width="612" height="792"/>
			</defs>
			<clipPath id="SVGID_21_">
				<use xlink:href="#SVGID_17_"  overflow="visible"/>
			</clipPath>
			<clipPath id="SVGID_22_" clip-path="url(#SVGID_21_)">
				<use xlink:href="#SVGID_18_"  overflow="visible"/>
			</clipPath>
			<clipPath id="SVGID_23_" clip-path="url(#SVGID_22_)">
				<use xlink:href="#SVGID_19_"  overflow="visible"/>
			</clipPath>
			<clipPath id="SVGID_24_" clip-path="url(#SVGID_23_)">
				<use xlink:href="#SVGID_20_"  overflow="visible"/>
			</clipPath>
			<path clip-path="url(#SVGID_24_)" fill="none" stroke="#2C9AD6" stroke-width="2" stroke-miterlimit="10" d="M54,60.6L69.4,76
				l7.6-7.6L61.6,53L54,60.6L54,60.6z M54,60.6"/>
		</g>
	</g>
</g>
</svg>
